<svg width="1260" height="1260" viewBox="0 0 1260 1260" fill="none" xmlns="http://www.w3.org/2000/svg">
<g clip-path="url(#clip0_1_3)">
<path d="M0 300C0 134.315 134.315 0 300 0H551.259C578.873 0 601.259 22.3858 601.259 50V601.259H49.9999C22.3857 601.259 0 578.873 0 551.259V300Z" fill="white"/>
<path d="M1260 960C1260 1125.69 1125.69 1260 960 1260H708.741C681.127 1260 658.741 1237.61 658.741 1210V658.741H1210C1237.61 658.741 1260 681.127 1260 708.741V960Z" fill="white"/>
<path d="M1260 300C1260 134.315 1125.69 0 960 0H708.741C681.127 0 658.741 22.3858 658.741 50V601.259H1210C1237.61 601.259 1260 578.873 1260 551.259V300Z" fill="white"/>
<path d="M0 960C0 1125.69 134.315 1260 300 1260H551.259C578.873 1260 601.259 1237.61 601.259 1210V658.741H49.9999C22.3857 658.741 0 681.127 0 708.741V960Z" fill="#0099A0"/>
<path d="M630 845.5C749.017 845.5 845.5 749.017 845.5 630C845.5 510.983 749.017 414.5 630 414.5C510.983 414.5 414.5 510.983 414.5 630C414.5 749.017 510.983 845.5 630 845.5Z" fill="#0099A0" stroke="white" stroke-width="19"/>
<path d="M497.52 658V602H506.08L530.56 642.88H526.08L550.16 602H558.72L558.8 658H548.96L548.88 617.44H550.96L530.48 651.6H525.84L505.04 617.44H507.44V658H497.52ZM600.166 658.8C595.793 658.8 591.766 658.08 588.086 656.64C584.406 655.2 581.206 653.2 578.486 650.64C575.766 648.027 573.66 644.987 572.166 641.52C570.673 638 569.926 634.16 569.926 630C569.926 625.84 570.673 622.027 572.166 618.56C573.66 615.04 575.766 612 578.486 609.44C581.206 606.827 584.406 604.8 588.086 603.36C591.766 601.92 595.766 601.2 600.086 601.2C604.46 601.2 608.46 601.92 612.086 603.36C615.766 604.8 618.966 606.827 621.686 609.44C624.406 612 626.513 615.04 628.006 618.56C629.5 622.027 630.246 625.84 630.246 630C630.246 634.16 629.5 638 628.006 641.52C626.513 645.04 624.406 648.08 621.686 650.64C618.966 653.2 615.766 655.2 612.086 656.64C608.46 658.08 604.486 658.8 600.166 658.8ZM600.086 649.68C602.913 649.68 605.526 649.2 607.926 648.24C610.326 647.28 612.406 645.92 614.166 644.16C615.926 642.347 617.286 640.267 618.246 637.92C619.26 635.52 619.766 632.88 619.766 630C619.766 627.12 619.26 624.507 618.246 622.16C617.286 619.76 615.926 617.68 614.166 615.92C612.406 614.107 610.326 612.72 607.926 611.76C605.526 610.8 602.913 610.32 600.086 610.32C597.26 610.32 594.646 610.8 592.246 611.76C589.9 612.72 587.82 614.107 586.006 615.92C584.246 617.68 582.86 619.76 581.846 622.16C580.886 624.507 580.406 627.12 580.406 630C580.406 632.827 580.886 635.44 581.846 637.84C582.86 640.24 584.246 642.347 586.006 644.16C587.766 645.92 589.846 647.28 592.246 648.24C594.646 649.2 597.26 649.68 600.086 649.68ZM641.27 658V602H667.51C674.23 602 679.35 603.333 682.87 606C686.39 608.613 688.15 612.133 688.15 616.56C688.15 619.547 687.457 622.107 686.07 624.24C684.683 626.32 682.817 627.947 680.47 629.12C678.177 630.24 675.67 630.8 672.95 630.8L674.39 627.92C677.537 627.92 680.363 628.507 682.87 629.68C685.377 630.8 687.35 632.453 688.79 634.64C690.283 636.827 691.03 639.547 691.03 642.8C691.03 647.6 689.19 651.333 685.51 654C681.83 656.667 676.363 658 669.11 658H641.27ZM651.67 649.84H668.47C672.363 649.84 675.35 649.2 677.43 647.92C679.51 646.64 680.55 644.587 680.55 641.76C680.55 638.987 679.51 636.96 677.43 635.68C675.35 634.347 672.363 633.68 668.47 633.68H650.87V625.6H666.39C670.017 625.6 672.79 624.96 674.71 623.68C676.683 622.4 677.67 620.48 677.67 617.92C677.67 615.307 676.683 613.36 674.71 612.08C672.79 610.8 670.017 610.16 666.39 610.16H651.67V649.84ZM702.129 658V602H712.529V658H702.129ZM745.036 658.8C740.663 658.8 736.476 658.187 732.476 656.96C728.476 655.68 725.303 654.053 722.956 652.08L726.556 644C728.796 645.76 731.57 647.227 734.876 648.4C738.183 649.573 741.57 650.16 745.036 650.16C747.97 650.16 750.343 649.84 752.156 649.2C753.97 648.56 755.303 647.707 756.156 646.64C757.01 645.52 757.436 644.267 757.436 642.88C757.436 641.173 756.823 639.813 755.596 638.8C754.37 637.733 752.77 636.907 750.796 636.32C748.876 635.68 746.716 635.093 744.316 634.56C741.97 634.027 739.596 633.413 737.196 632.72C734.85 631.973 732.69 631.04 730.716 629.92C728.796 628.747 727.223 627.2 725.996 625.28C724.77 623.36 724.156 620.907 724.156 617.92C724.156 614.88 724.956 612.107 726.556 609.6C728.21 607.04 730.69 605.013 733.996 603.52C737.356 601.973 741.596 601.2 746.716 601.2C750.076 601.2 753.41 601.627 756.716 602.48C760.023 603.333 762.903 604.56 765.356 606.16L762.076 614.24C759.57 612.747 756.983 611.653 754.316 610.96C751.65 610.213 749.09 609.84 746.636 609.84C743.756 609.84 741.41 610.187 739.596 610.88C737.836 611.573 736.53 612.48 735.676 613.6C734.876 614.72 734.476 616 734.476 617.44C734.476 619.147 735.063 620.533 736.236 621.6C737.463 622.613 739.036 623.413 740.956 624C742.93 624.587 745.116 625.173 747.516 625.76C749.916 626.293 752.29 626.907 754.636 627.6C757.036 628.293 759.196 629.2 761.116 630.32C763.09 631.44 764.663 632.96 765.836 634.88C767.063 636.8 767.676 639.227 767.676 642.16C767.676 645.147 766.85 647.92 765.196 650.48C763.596 652.987 761.116 655.013 757.756 656.56C754.396 658.053 750.156 658.8 745.036 658.8Z" fill="white"/>
<path d="M295.968 374.104V290.904L303.264 298.456H277.024V284.504H312.608V374.104H295.968Z" fill="#0099A0"/>
<path d="M261.352 977.371V965.851L305.512 908.123H323.304L279.784 965.851L271.464 963.291H342.504V977.371H261.352ZM310.504 997.723V977.371L311.016 963.291V945.243H326.632V997.723H310.504Z" fill="white"/>
<path d="M926.48 374.104V362.968L962.064 329.176C965.051 326.36 967.269 323.885 968.72 321.752C970.171 319.618 971.109 317.656 971.536 315.864C972.048 313.986 972.304 312.237 972.304 310.616C972.304 306.52 970.896 303.362 968.08 301.144C965.264 298.84 961.125 297.688 955.664 297.688C951.312 297.688 947.344 298.456 943.76 299.992C940.261 301.528 937.232 303.874 934.672 307.032L923.024 298.072C926.523 293.378 931.216 289.752 937.104 287.192C943.077 284.546 949.733 283.224 957.072 283.224C963.557 283.224 969.189 284.29 973.968 286.424C978.832 288.472 982.544 291.416 985.104 295.256C987.749 299.096 989.072 303.661 989.072 308.952C989.072 311.853 988.688 314.754 987.92 317.656C987.152 320.472 985.701 323.458 983.568 326.616C981.435 329.773 978.32 333.314 974.224 337.24L943.632 366.296L940.176 360.024H992.528V374.104H926.48Z" fill="#0099A0"/>
<path d="M955.792 999.003C949.477 999.003 943.291 998.107 937.232 996.315C931.259 994.437 926.224 991.877 922.128 988.635L929.296 975.707C932.539 978.352 936.464 980.485 941.072 982.107C945.68 983.728 950.501 984.539 955.536 984.539C961.509 984.539 966.16 983.344 969.488 980.955C972.816 978.48 974.48 975.152 974.48 970.971C974.48 966.875 972.944 963.632 969.872 961.243C966.8 958.853 961.851 957.659 955.024 957.659H946.832V946.267L972.432 915.803L974.608 922.075H926.48V908.123H987.536V919.259L961.936 949.723L953.232 944.603H958.224C969.232 944.603 977.467 947.077 982.928 952.027C988.475 956.891 991.248 963.163 991.248 970.843C991.248 975.877 989.968 980.528 987.408 984.795C984.848 989.061 980.923 992.517 975.632 995.163C970.427 997.723 963.813 999.003 955.792 999.003Z" fill="#0099A0"/>
</g>
<defs>
<clipPath id="clip0_1_3">
<rect width="1260" height="1260" fill="white"/>
</clipPath>
</defs>
</svg>
