<svg width="100" height="100" viewBox="0 0 100 100" fill="none" xmlns="http://www.w3.org/2000/svg">
<g filter="url(#filter0_i_1_14)">
<circle cx="50" cy="50" r="46" fill="#7B34EE"/>
<circle cx="50" cy="50" r="46" fill="url(#paint0_radial_1_14)"/>
</g>
<g filter="url(#filter1_dd_1_14)">
<path fill-rule="evenodd" clip-rule="evenodd" d="M36.6781 35.6214C38.2511 34.4853 37.4475 32 35.5071 32H27C24.7909 32 23 33.7909 23 36V64C23 66.2091 24.7909 68 27 68H73C75.2091 68 77 66.2091 77 64V36C77 33.7909 75.2091 32 73 32H64.4929C62.5525 32 61.7489 34.4853 63.3219 35.6214L65.755 37.3786C66.8604 38.177 66.8604 39.823 65.755 40.6214L51.171 51.1543C50.4719 51.6591 49.528 51.6591 48.829 51.1543L34.245 40.6214C33.1396 39.823 33.1396 38.177 34.245 37.3786L36.6781 35.6214Z" fill="white"/>
<path fill-rule="evenodd" clip-rule="evenodd" d="M36.6781 35.6214C38.2511 34.4853 37.4475 32 35.5071 32H27C24.7909 32 23 33.7909 23 36V64C23 66.2091 24.7909 68 27 68H73C75.2091 68 77 66.2091 77 64V36C77 33.7909 75.2091 32 73 32H64.4929C62.5525 32 61.7489 34.4853 63.3219 35.6214L65.755 37.3786C66.8604 38.177 66.8604 39.823 65.755 40.6214L51.171 51.1543C50.4719 51.6591 49.528 51.6591 48.829 51.1543L34.245 40.6214C33.1396 39.823 33.1396 38.177 34.245 37.3786L36.6781 35.6214Z" fill="url(#paint1_linear_1_14)" fill-opacity="0.2"/>
</g>
<defs>
<filter id="filter0_i_1_14" x="4" y="4" width="92" height="92" filterUnits="userSpaceOnUse" color-interpolation-filters="sRGB">
<feFlood flood-opacity="0" result="BackgroundImageFix"/>
<feBlend mode="normal" in="SourceGraphic" in2="BackgroundImageFix" result="shape"/>
<feColorMatrix in="SourceAlpha" type="matrix" values="0 0 0 0 0 0 0 0 0 0 0 0 0 0 0 0 0 0 127 0" result="hardAlpha"/>
<feOffset/>
<feGaussianBlur stdDeviation="3.75"/>
<feComposite in2="hardAlpha" operator="arithmetic" k2="-1" k3="1"/>
<feColorMatrix type="matrix" values="0 0 0 0 0 0 0 0 0 0 0 0 0 0 0 0 0 0 0.4 0"/>
<feBlend mode="normal" in2="shape" result="effect1_innerShadow_1_14"/>
</filter>
<filter id="filter1_dd_1_14" x="13.1" y="22.1" width="73.8" height="55.8" filterUnits="userSpaceOnUse" color-interpolation-filters="sRGB">
<feFlood flood-opacity="0" result="BackgroundImageFix"/>
<feColorMatrix in="SourceAlpha" type="matrix" values="0 0 0 0 0 0 0 0 0 0 0 0 0 0 0 0 0 0 127 0" result="hardAlpha"/>
<feOffset dy="3"/>
<feGaussianBlur stdDeviation="3.05"/>
<feComposite in2="hardAlpha" operator="out"/>
<feColorMatrix type="matrix" values="0 0 0 0 0 0 0 0 0 0 0 0 0 0 0 0 0 0 0.16 0"/>
<feBlend mode="normal" in2="BackgroundImageFix" result="effect1_dropShadow_1_14"/>
<feColorMatrix in="SourceAlpha" type="matrix" values="0 0 0 0 0 0 0 0 0 0 0 0 0 0 0 0 0 0 127 0" result="hardAlpha"/>
<feOffset/>
<feGaussianBlur stdDeviation="4.95"/>
<feComposite in2="hardAlpha" operator="out"/>
<feColorMatrix type="matrix" values="0 0 0 0 0.2 0 0 0 0 0.2 0 0 0 0 0.2 0 0 0 0.08 0"/>
<feBlend mode="multiply" in2="effect1_dropShadow_1_14" result="effect2_dropShadow_1_14"/>
<feBlend mode="normal" in="SourceGraphic" in2="effect2_dropShadow_1_14" result="shape"/>
</filter>
<radialGradient id="paint0_radial_1_14" cx="0" cy="0" r="1" gradientUnits="userSpaceOnUse" gradientTransform="translate(61 25) rotate(100.766) scale(72.2721)">
<stop stop-color="#77DFF5"/>
<stop offset="0.28" stop-color="#77C5F4"/>
<stop offset="1" stop-color="#7947EC"/>
</radialGradient>
<linearGradient id="paint1_linear_1_14" x1="50" y1="85.5" x2="61.727" y2="31.0792" gradientUnits="userSpaceOnUse">
<stop stop-color="#78D7F5"/>
<stop offset="1" stop-color="#795BED" stop-opacity="0"/>
</linearGradient>
</defs>
</svg>
