<svg width="100" height="100" viewBox="0 0 100 100" fill="none" xmlns="http://www.w3.org/2000/svg">
<g filter="url(#filter0_i_1_4)">
<circle cx="50" cy="50" r="46" fill="#34AFEE"/>
<circle cx="50" cy="50" r="46" fill="url(#paint0_radial_1_4)" fill-opacity="0.85"/>
</g>
<g filter="url(#filter1_dd_1_4)">
<path fill-rule="evenodd" clip-rule="evenodd" d="M69.9481 33.3173C70.1929 31.7783 68.6615 30.563 67.2183 31.1509L22.2534 49.47C20.4545 50.2028 20.6375 52.8639 22.51 53.3803C25.1166 54.0991 28.2676 55.0165 31.3224 56.0286C32.488 56.4147 33.7678 56.269 34.8025 55.6079L57.5422 41.0798C58.5461 40.4384 59.629 41.7748 58.7934 42.6239L45.3631 56.2707C43.461 58.2035 43.988 61.4401 46.3458 62.7797C50.7069 65.2577 54.9706 67.9967 58.1571 70.1256C60.6344 71.7808 64.0584 70.3384 64.5265 67.396L69.9481 33.3173Z" fill="white"/>
<path fill-rule="evenodd" clip-rule="evenodd" d="M69.9481 33.3173C70.1929 31.7783 68.6615 30.563 67.2183 31.1509L22.2534 49.47C20.4545 50.2028 20.6375 52.8639 22.51 53.3803C25.1166 54.0991 28.2676 55.0165 31.3224 56.0286C32.488 56.4147 33.7678 56.269 34.8025 55.6079L57.5422 41.0798C58.5461 40.4384 59.629 41.7748 58.7934 42.6239L45.3631 56.2707C43.461 58.2035 43.988 61.4401 46.3458 62.7797C50.7069 65.2577 54.9706 67.9967 58.1571 70.1256C60.6344 71.7808 64.0584 70.3384 64.5265 67.396L69.9481 33.3173Z" fill="url(#paint1_linear_1_4)" fill-opacity="0.2"/>
</g>
<defs>
<filter id="filter0_i_1_4" x="4" y="4" width="92" height="92" filterUnits="userSpaceOnUse" color-interpolation-filters="sRGB">
<feFlood flood-opacity="0" result="BackgroundImageFix"/>
<feBlend mode="normal" in="SourceGraphic" in2="BackgroundImageFix" result="shape"/>
<feColorMatrix in="SourceAlpha" type="matrix" values="0 0 0 0 0 0 0 0 0 0 0 0 0 0 0 0 0 0 127 0" result="hardAlpha"/>
<feOffset/>
<feGaussianBlur stdDeviation="3.75"/>
<feComposite in2="hardAlpha" operator="arithmetic" k2="-1" k3="1"/>
<feColorMatrix type="matrix" values="0 0 0 0 0 0 0 0 0 0 0 0 0 0 0 0 0 0 0.4 0"/>
<feBlend mode="normal" in2="shape" result="effect1_innerShadow_1_4"/>
</filter>
<filter id="filter1_dd_1_4" x="11.1" y="21.1" width="68.774" height="59.6231" filterUnits="userSpaceOnUse" color-interpolation-filters="sRGB">
<feFlood flood-opacity="0" result="BackgroundImageFix"/>
<feColorMatrix in="SourceAlpha" type="matrix" values="0 0 0 0 0 0 0 0 0 0 0 0 0 0 0 0 0 0 127 0" result="hardAlpha"/>
<feOffset dy="3"/>
<feGaussianBlur stdDeviation="3.05"/>
<feComposite in2="hardAlpha" operator="out"/>
<feColorMatrix type="matrix" values="0 0 0 0 0 0 0 0 0 0 0 0 0 0 0 0 0 0 0.16 0"/>
<feBlend mode="normal" in2="BackgroundImageFix" result="effect1_dropShadow_1_4"/>
<feColorMatrix in="SourceAlpha" type="matrix" values="0 0 0 0 0 0 0 0 0 0 0 0 0 0 0 0 0 0 127 0" result="hardAlpha"/>
<feOffset/>
<feGaussianBlur stdDeviation="4.95"/>
<feComposite in2="hardAlpha" operator="out"/>
<feColorMatrix type="matrix" values="0 0 0 0 0.2 0 0 0 0 0.2 0 0 0 0 0.2 0 0 0 0.08 0"/>
<feBlend mode="multiply" in2="effect1_dropShadow_1_4" result="effect2_dropShadow_1_4"/>
<feBlend mode="normal" in="SourceGraphic" in2="effect2_dropShadow_1_4" result="shape"/>
</filter>
<radialGradient id="paint0_radial_1_4" cx="0" cy="0" r="1" gradientUnits="userSpaceOnUse" gradientTransform="translate(61 25) rotate(97.2243) scale(71.5681)">
<stop stop-color="#AEFFC0"/>
<stop offset="0.35" stop-color="#A3F4E5" stop-opacity="0.79"/>
<stop offset="1" stop-color="#77CBF5" stop-opacity="0"/>
</radialGradient>
<linearGradient id="paint1_linear_1_4" x1="53.4875" y1="68" x2="59.7041" y2="27.9077" gradientUnits="userSpaceOnUse">
<stop stop-color="#95EED0"/>
<stop offset="1" stop-color="#96EECF"/>
</linearGradient>
</defs>
</svg>
