<svg width="19" height="25" viewBox="0 0 19 25" fill="none" xmlns="http://www.w3.org/2000/svg">
<path fill-rule="evenodd" clip-rule="evenodd" d="M8.70465 0.0317336C6.49484 0.190901 4.3288 1.04915 2.79169 2.37465C1.36435 3.60545 0.45469 5.22726 0.133211 7.11432C-0.133004 8.67697 0.00336099 10.4936 0.510292 12.1374C1.38667 14.9792 3.59153 17.7503 6.62091 19.8173C6.92101 20.0221 7.09369 20.163 7.08201 20.1935C7.07171 20.2203 6.64278 20.8726 6.12884 21.6432C5.61491 22.4136 5.1562 23.1186 5.10955 23.2096C4.99262 23.4378 4.96731 23.8472 5.05376 24.1117C5.14055 24.3769 5.30912 24.602 5.53871 24.7591C5.90939 25.0128 5.81957 25.0075 9.47978 24.9957L12.77 24.9852L13.0179 24.8632C13.4792 24.6361 13.7373 24.2294 13.7365 23.7312C13.7362 23.531 13.7143 23.4013 13.6605 23.2805C13.6189 23.1873 13.1431 22.4485 12.603 21.6388C12.063 20.8292 11.6283 20.1595 11.637 20.1508C11.6457 20.1421 11.8561 19.9963 12.1046 19.8268C13.8072 18.6654 15.3814 17.1475 16.4819 15.6059C18.0235 13.4464 18.8174 10.9112 18.7272 8.43573C18.6548 6.44964 18.0823 4.82195 16.9686 3.43554C15.4026 1.48595 12.84 0.234371 9.99764 0.0307229C9.42298 -0.0104636 9.28912 -0.0103515 8.70465 0.0317336ZM8.25657 2.61244C5.53789 3.03603 3.55405 4.50818 2.84837 6.62577C2.58868 7.40502 2.54959 7.68538 2.54891 8.77271C2.54824 9.81334 2.57748 10.0854 2.77413 10.8695C3.35119 13.1703 4.85887 15.3036 7.19894 17.1305C7.66506 17.4944 8.53795 18.0899 9.0241 18.3755L9.36105 18.5735L9.51085 18.488C10.7114 17.8025 11.9737 16.851 12.92 15.9181C14.7926 14.0718 15.8542 12.0686 16.1611 9.80237C16.237 9.24164 16.2183 8.07628 16.125 7.55168C15.871 6.1243 15.1722 4.94319 14.0788 4.0934C13.096 3.3295 11.8386 2.81527 10.4562 2.61188C9.8132 2.5173 8.86584 2.51753 8.25657 2.61244ZM8.05064 4.42641C7.57741 4.50504 7.29038 4.59123 6.91996 4.76586C6.46829 4.97887 6.20197 5.15833 5.86356 5.47779C5.04043 6.25475 4.54283 7.34799 4.39781 8.69782C4.3096 9.51908 4.39485 9.91152 4.7358 10.2533C5.00921 10.5273 5.21263 10.6074 5.63562 10.6074C5.95983 10.6074 6.00906 10.5976 6.19156 10.4965C6.58717 10.2773 6.87084 9.83491 6.87151 9.43589C6.87203 9.13691 6.94419 8.59913 7.02225 8.31221C7.27682 7.3769 7.89237 6.88378 8.80754 6.88217C9.50333 6.8809 10.1061 6.14812 9.98364 5.45248C9.93028 5.14957 9.81099 4.92574 9.59562 4.72426C9.32619 4.47224 9.13085 4.39807 8.70588 4.38638C8.51025 4.38103 8.21539 4.39904 8.05064 4.42641ZM8.99258 21.8773C8.79372 22.1758 8.631 22.4285 8.631 22.4389C8.631 22.4493 8.96824 22.4579 9.38044 22.4579H10.1299L9.75427 21.8962C9.54766 21.5873 9.37314 21.3346 9.3664 21.3346C9.35966 21.3346 9.19143 21.5788 8.99258 21.8773Z" fill="#EEF0F2" fill-opacity="0.85"/>
<path fill-rule="evenodd" clip-rule="evenodd" d="M8.21913 0.0893947C5.9754 0.357369 3.89859 1.30009 2.45838 2.70433C1.35203 3.78304 0.677659 4.94221 0.300279 6.41384C0.0772725 7.28363 0.0387818 7.63813 0.0402795 8.81015C0.0414028 9.69944 0.0540582 9.9381 0.123551 10.3827C0.474835 12.63 1.40767 14.6319 2.99593 16.5468C3.9518 17.6992 5.26812 18.8788 6.66528 19.835C6.9124 20.0041 7.11047 20.1577 7.10545 20.1762C7.1004 20.1949 6.64285 20.8908 6.0887 21.7228C5.20836 23.0444 5.07537 23.263 5.03583 23.4535C4.90916 24.0637 5.2394 24.6771 5.80935 24.8904C6.01461 24.9671 6.05534 24.9679 9.43009 24.9579L12.8433 24.9478L13.0305 24.8486C13.269 24.7221 13.4789 24.5121 13.605 24.2738C13.692 24.1094 13.7041 24.0433 13.7041 23.7309C13.7042 23.4291 13.6909 23.3501 13.6161 23.2097C13.5676 23.1187 13.0943 22.394 12.5642 21.5994L11.6006 20.1546L11.9598 19.9118C13.7213 18.7209 15.3433 17.1815 16.4023 15.6957C17.8282 13.6951 18.5576 11.6933 18.7036 9.3795C18.808 7.72526 18.5112 6.16654 17.8322 4.80383C16.9158 2.96436 15.2102 1.49861 13.056 0.699517C11.5395 0.136909 9.73109 -0.0911894 8.21913 0.0893947ZM8.87437 2.52374C7.32875 2.68276 6.10091 3.09358 5.01587 3.81471C4.50868 4.15177 3.75882 4.88485 3.46786 5.32802C2.59834 6.65243 2.30614 8.35294 2.62503 10.233C3.04802 12.7266 4.58783 15.0794 7.09721 17.0661C7.77825 17.6053 9.23494 18.5639 9.37337 18.5639C9.3989 18.5639 9.59195 18.4601 9.80234 18.3333C13.0074 16.4012 15.2179 13.7655 15.9347 11.0213C16.296 9.63849 16.3264 8.18569 16.0188 7.01292C15.5871 5.36692 14.5543 4.15907 12.8807 3.34283C12.1118 2.96781 11.3251 2.7235 10.4766 2.59631C10.0891 2.53816 9.14819 2.49559 8.87437 2.52374ZM8.26481 4.41154C6.79883 4.56195 5.56964 5.43555 4.92601 6.78449C4.6316 7.4015 4.46768 8.0582 4.40111 8.88736C4.34262 9.61591 4.40953 9.88321 4.73708 10.2295C4.99674 10.5041 5.2269 10.6023 5.61757 10.6052C5.88345 10.6071 5.94624 10.5934 6.16662 10.4849C6.45193 10.3445 6.61791 10.1735 6.75102 9.8828C6.82643 9.71801 6.85032 9.58681 6.8757 9.1976C6.92344 8.46579 7.05872 7.99031 7.33988 7.56639C7.62283 7.13978 8.0232 6.93433 8.67473 6.88135C9.1702 6.8411 9.41167 6.73907 9.65688 6.46634C10.0521 6.02673 10.0878 5.36587 9.74168 4.89743C9.43398 4.48104 8.99501 4.33662 8.26481 4.41154ZM8.96858 21.8953C8.76231 22.2037 8.59356 22.4649 8.59356 22.4757C8.59356 22.4865 8.93896 22.4953 9.36112 22.4953C9.78328 22.4953 10.1287 22.4832 10.1287 22.4685C10.1287 22.4246 9.401 21.3362 9.37108 21.3354C9.35595 21.335 9.17485 21.5869 8.96858 21.8953Z" fill="#EEF0F2" fill-opacity="0.85"/>
</svg>
