<svg width="20" height="19" viewBox="0 0 20 19" fill="none" xmlns="http://www.w3.org/2000/svg">
<g opacity="0.8">
<path fill-rule="evenodd" clip-rule="evenodd" d="M12.8753 0.0289764C12.6694 0.0414065 12.3823 0.0797452 12.2373 0.11419C11.4168 0.309059 10.7035 0.891537 10.3034 1.69327C10.1517 1.99728 10.0716 2.28317 10.027 2.67956L9.99221 2.98839L6.42428 3.00127C2.66215 3.01481 2.6153 3.01652 2.11483 3.15768C1.21966 3.41015 0.452492 4.15722 0.177412 5.0444C0.0132443 5.57383 0.0183662 5.41107 0.00461821 10.5256C-0.0106574 16.2138 -0.000383879 16.5123 0.232344 17.1301C0.466 17.7503 1.01802 18.3425 1.65827 18.6598C2.00701 18.8326 2.3 18.9129 2.74587 18.9581C2.9691 18.9808 5.23336 18.9875 10.2246 18.9804C17.369 18.9703 17.3837 18.9701 17.6527 18.9075C18.4371 18.7248 19.0453 18.3064 19.4877 17.645C19.8227 17.1441 19.93 16.7497 19.9773 15.8447C20.0214 14.9999 19.9957 5.93547 19.9482 5.61349C19.8423 4.89473 19.5845 4.36586 19.1077 3.88896C18.9828 3.76415 18.7964 3.6052 18.6933 3.53574C18.4959 3.40275 18.1005 3.20234 18.0354 3.20234C18.0144 3.20234 17.9971 3.17877 17.9971 3.14993C17.9971 2.99196 17.9288 2.4123 17.891 2.249C17.7497 1.63821 17.3191 1.00428 16.7676 0.595431C16.512 0.405894 16.0667 0.193054 15.7665 0.116946C15.3438 0.00977697 13.9139 -0.0337433 12.8753 0.0289764ZM12.7705 2.06144C12.3948 2.12907 12.0833 2.4598 12.0449 2.83178L12.0283 2.99268H15.9681L15.9477 2.83881C15.907 2.53198 15.6963 2.25139 15.4063 2.11805C15.2587 2.05017 15.2396 2.04913 14.0734 2.04451C13.4227 2.04197 12.8364 2.04958 12.7705 2.06144ZM2.80011 5.06243C2.52479 5.10262 2.26849 5.28533 2.14065 5.53253C2.0342 5.73839 2.02956 5.99298 2.0387 11.1546C2.04687 15.7755 2.05196 16.2278 2.09713 16.3455C2.21119 16.6427 2.41588 16.8352 2.69983 16.9121C2.79451 16.9377 3.08423 16.9613 3.43294 16.9717L4.00951 16.9891V5.02942L3.49284 5.03308C3.20866 5.03508 2.89694 5.04829 2.80011 5.06243ZM6.01631 16.982L11.5949 16.9735C16.7224 16.9657 17.1852 16.9609 17.3186 16.9148C17.6185 16.8111 17.8383 16.5852 17.9131 16.3038C17.97 16.0897 17.9708 5.85451 17.914 5.66716C17.8628 5.49862 17.7115 5.30477 17.542 5.19071C17.4396 5.12176 17.3438 5.08852 17.1749 5.06342C17.0109 5.03901 15.4031 5.02942 11.4813 5.02942H6.01631V16.982ZM11.3478 7.05044C10.0742 7.26604 8.98291 8.07891 8.3998 9.24635C7.62701 10.7935 7.98551 12.7235 9.26812 13.9213C9.81052 14.4278 10.4709 14.7681 11.2296 14.9319C11.6221 15.0167 12.401 15.0097 12.815 14.9177C13.6296 14.7367 14.2868 14.3706 14.8618 13.7777C15.3866 13.2366 15.7111 12.645 15.9048 11.8764C15.9926 11.528 16.0147 10.7486 15.9478 10.3609C15.6536 8.65539 14.3519 7.34322 12.6679 7.05463C12.3321 6.99709 11.6752 6.995 11.3478 7.05044ZM11.5342 9.069C11.1508 9.16671 10.8851 9.31994 10.5978 9.60922C10.1892 10.0206 10.0192 10.4313 10.0202 11.0049C10.0209 11.3655 10.0793 11.6059 10.2427 11.9205C10.5872 12.5838 11.2327 12.9737 11.9918 12.9769C12.5573 12.9793 12.9767 12.8056 13.3878 12.3984C13.5976 12.1906 13.6686 12.0956 13.7688 11.8885C14.0561 11.294 14.0526 10.6952 13.7584 10.0991C13.5258 9.62779 13.1343 9.28975 12.6204 9.11648C12.2989 9.00802 11.8504 8.98843 11.5342 9.069Z" fill="#EEF0F2"/>
<path fill-rule="evenodd" clip-rule="evenodd" d="M12.7256 0.0465583C12.6844 0.0526086 12.552 0.0721373 12.4314 0.0899588C11.5136 0.225462 10.6448 0.915888 10.2488 1.82455C10.1299 2.09726 10.0621 2.38863 10.0351 2.74216L10.0149 3.00765L6.3308 3.02479C3.12476 3.0397 2.61665 3.04812 2.41513 3.08957C1.75742 3.22496 1.29996 3.48048 0.833213 3.9731C0.438205 4.39003 0.212546 4.82581 0.0946243 5.39933C0.049127 5.62077 0.0434063 6.11788 0.0332226 10.7503C0.0215413 16.0588 0.0269625 16.3513 0.145663 16.8155C0.402951 17.8214 1.29001 18.6693 2.30949 18.8838C2.78819 18.9845 3.30255 18.9907 10.3144 18.9808C16.9228 18.9714 17.2773 18.9682 17.5479 18.9157C18.176 18.7937 18.6474 18.5486 19.0782 18.12C19.62 17.581 19.862 17.0642 19.9412 16.2777C19.9855 15.8375 19.987 6.13756 19.9429 5.72464C19.8811 5.14728 19.7115 4.67272 19.4216 4.26642C19.131 3.85931 18.6205 3.45002 18.1663 3.26018L17.9822 3.18323L17.9612 2.8499C17.9025 1.91665 17.5079 1.16422 16.7959 0.627659C16.3655 0.303368 15.901 0.120929 15.3464 0.0583294C15.1007 0.0305937 12.9016 0.0207396 12.7256 0.0465583ZM12.9321 2.03559C12.7661 2.05035 12.6296 2.08135 12.5488 2.12257C12.2565 2.2717 12.0616 2.546 12.0211 2.86538L12.0011 3.02263H15.9687L15.9529 2.84825C15.9337 2.63679 15.8487 2.46169 15.6866 2.29953C15.5167 2.12967 15.3458 2.06257 15.0055 2.03217C14.659 2.00117 13.2929 2.00342 12.9321 2.03559ZM3.05105 5.03026C2.61363 5.06417 2.5291 5.09633 2.31803 5.30908C2.09986 5.52902 2.06904 5.61433 2.03115 6.10371C1.99467 6.57462 1.99613 15.4552 2.03277 15.9263C2.06437 16.3327 2.11187 16.4785 2.27208 16.661C2.49996 16.9205 2.72843 16.9788 3.52279 16.9797L4.00951 16.9803V4.99947L3.67255 5.00381C3.48724 5.00621 3.20755 5.0181 3.05105 5.03026ZM6.01631 16.9803L11.4901 16.9797C14.9964 16.9794 17.0387 16.9683 17.1721 16.949C17.4104 16.9146 17.5843 16.8244 17.7278 16.661C17.888 16.4785 17.9355 16.3327 17.9671 15.9263C18.0037 15.4557 18.0052 6.57486 17.9688 6.10449C17.9298 5.60037 17.9048 5.53028 17.6875 5.31477C17.4676 5.0966 17.3823 5.06578 16.8929 5.02789C16.7013 5.01304 14.1756 5.00058 11.2804 5.00019L6.01631 4.99947V16.9803ZM11.3927 7.0511C10.1046 7.25801 9.00148 8.07127 8.41466 9.24659C8.13344 9.80981 8.01375 10.3411 8.0151 11.0198C8.01833 12.6251 8.95524 14.0331 10.4486 14.6769C10.6011 14.7427 10.8624 14.8296 11.0293 14.87C12.4135 15.2057 13.8116 14.8178 14.8085 13.8214C15.3924 13.2378 15.7604 12.5508 15.9212 11.7441C16.0022 11.338 15.9943 10.5865 15.9049 10.1812C15.6085 8.83759 14.6606 7.73646 13.3849 7.2539C12.8265 7.04268 11.9809 6.9566 11.3927 7.0511ZM11.525 9.05864C11.1485 9.15005 10.7501 9.39009 10.4952 9.6791C10.3173 9.88076 10.1009 10.3162 10.0447 10.5855C9.89345 11.3104 10.1571 12.0639 10.7291 12.5416C10.9341 12.7128 11.3189 12.8975 11.5914 12.9556C12.0557 13.0545 12.6242 12.9555 13.0398 12.7033C13.2658 12.5662 13.5786 12.2523 13.7086 12.032C13.9597 11.607 14.0481 11.0434 13.9401 10.5577C13.7811 9.84326 13.209 9.25405 12.4977 9.07212C12.2259 9.00263 11.7811 8.99646 11.525 9.05864Z" fill="#EEF0F2"/>
</g>
</svg>
