<svg width="25" height="24" viewBox="0 0 25 24" fill="none" xmlns="http://www.w3.org/2000/svg">
<path fill-rule="evenodd" clip-rule="evenodd" d="M12.0289 0.346096C11.9061 0.397843 11.7695 0.471621 11.7253 0.510059C11.2792 0.897651 2.46445 9.1561 2.36115 9.28319C2.01846 9.70482 1.74935 10.2262 1.61908 10.7208C1.50021 11.1723 0.0279468 20.1212 0.00557251 20.5282C-0.0223093 21.0358 0.0526921 21.4045 0.270048 21.8284C0.649684 22.5688 1.33449 23.0444 2.19328 23.164C2.56332 23.2155 22.4858 23.2147 22.8426 23.1631C23.8942 23.0111 24.7401 22.2304 24.9547 21.214C25.0644 20.694 25.0269 20.4034 24.2435 15.7064C23.8417 13.2979 23.4803 11.17 23.4401 10.9779C23.3099 10.3542 23.0337 9.7669 22.6469 9.29107C22.5673 9.1932 20.4223 7.17109 17.8802 4.79743C14.5515 1.68943 13.203 0.45353 13.0611 0.380862C12.7697 0.231661 12.3352 0.217013 12.0289 0.346096ZM8.23625 7.25841C4.0793 11.1445 4.29807 10.9335 4.18566 11.165C4.10366 11.3339 3.9677 12.0903 3.32247 15.9659C2.90126 18.4961 2.55662 20.583 2.55662 20.6033C2.55662 20.6269 4.1221 20.6403 6.8785 20.6403H11.2004V12.5702C11.2004 8.1317 11.196 4.50133 11.1908 4.50274C11.1856 4.50416 9.856 5.74419 8.23625 7.25841ZM13.8011 11.3925L19.5814 20.6403H21.0131C21.9092 20.6403 22.4449 20.6264 22.4449 20.6033C22.4449 20.583 22.1002 18.4976 21.679 15.9692C20.9169 11.3951 20.8685 11.1486 20.6936 10.9495C20.6576 10.9084 19.2083 9.55 17.4728 7.93067C15.7374 6.31131 14.2013 4.87316 14.0593 4.73475L13.8011 4.48312V11.3925ZM13.8011 20.6403H15.1803C16.1228 20.6403 16.5516 20.6277 16.5349 20.6006C16.5214 20.5788 15.9008 19.5857 15.1558 18.3938L13.8011 16.2266V20.6403Z" fill="#EEF0F2" fill-opacity="0.85"/>
</svg>
