<svg width="25" height="25" viewBox="0 0 25 25" fill="none" xmlns="http://www.w3.org/2000/svg">
<path fill-rule="evenodd" clip-rule="evenodd" d="M11.6466 0.580368C10.8358 0.727346 10.153 1.04482 9.48132 1.58705C9.3163 1.7203 8.91006 2.10524 8.57856 2.44251C7.74781 3.28774 0.220585 11.6613 0.127462 11.8438C0.0241016 12.0464 -0.0269037 12.3933 0.0142757 12.6138C0.172092 13.4585 1.0061 13.8901 1.80123 13.5383C1.90537 13.4923 2.07478 13.3565 2.23008 13.1945C2.32311 13.0975 2.48688 13.1634 2.4869 13.2977L2.4874 16.0546C2.48803 19.8271 2.51695 20.488 2.71673 21.2974C3.01339 22.4994 3.8774 23.6089 5.03046 24.2687C5.59546 24.592 6.26374 24.781 7.13732 24.8646C7.7612 24.9244 14.8866 24.9563 16.5883 24.907C18.0395 24.865 18.4841 24.8193 19.0569 24.6536C20.5465 24.2226 21.8952 22.8371 22.2734 21.3493C22.4759 20.5525 22.4845 20.3715 22.5032 16.5064L22.5187 13.2931C22.5193 13.1616 22.6798 13.098 22.7703 13.1932C23.0531 13.4906 23.2321 13.5942 23.5516 13.6457C24.5482 13.8062 25.2985 12.8092 24.8832 11.8761C24.8122 11.7167 24.7154 11.6037 23.3203 10.0538L23.0413 9.74385C22.7136 9.37989 22.5309 8.90838 22.5278 8.4187L22.4967 3.59241C22.4957 3.43666 22.4595 3.28316 22.3909 3.14335C22.2568 2.87032 22.0242 2.63795 21.7639 2.51677C21.5978 2.43951 21.4989 2.42054 21.2569 2.41949C20.9912 2.41832 20.927 2.43254 20.7053 2.54164C20.4324 2.6759 20.2419 2.86769 20.1045 3.14665C20.0221 3.31395 20.0194 3.35622 20.0012 4.83125C19.9945 5.37033 19.3299 5.62117 18.9687 5.22093L18.3462 4.53122C16.6145 2.61233 15.8433 1.82437 15.2977 1.41659C14.7199 0.98466 14.0402 0.698243 13.3132 0.58033C12.8936 0.512261 12.0222 0.512298 11.6466 0.580368ZM11.875 3.11166C11.5519 3.19634 11.4658 3.23891 11.1554 3.46746C10.7506 3.76546 10.1709 4.3803 7.53996 7.3022L5.51341 9.55287C5.18264 9.92022 4.99963 10.3971 4.99969 10.8914L5.00012 14.578C5.00065 19.0511 5.02262 20.0403 5.13322 20.5758C5.24214 21.103 5.56587 21.5897 6.02608 21.9181C6.51851 22.2695 6.83369 22.3439 7.971 22.377C8.39703 22.3894 8.74946 22.0481 8.75078 21.6219L8.76805 16.0311C8.76851 15.8839 8.80457 15.7391 8.87315 15.6089C9.07567 15.2245 9.41085 14.9897 9.85576 14.9204C9.9892 14.8996 11.1609 14.8897 12.6706 14.8964C15.0176 14.907 15.272 14.9141 15.4204 14.9729C15.7723 15.1125 16.0436 15.3875 16.1743 15.7368C16.2491 15.9366 16.2508 16.0126 16.2508 19.1707V21.6216C16.2508 22.0477 16.603 22.3895 17.029 22.3767C18.1721 22.3422 18.483 22.269 18.9747 21.9181C19.425 21.5968 19.7483 21.1178 19.8657 20.5979C19.9778 20.1015 20.0001 19.1106 20.0006 14.5969L20.0011 10.8917C20.0011 10.3974 19.8181 9.92056 19.4874 9.55322L17.6297 7.4899C16.3254 6.0412 15.0842 4.67028 14.8716 4.44338C14.3889 3.92827 13.8963 3.48448 13.6195 3.31534C13.1816 3.04786 12.4461 2.96198 11.875 3.11166ZM11.2628 21.1514C11.2628 21.8349 11.8169 22.389 12.5004 22.389C13.1839 22.389 13.738 21.8349 13.738 21.1514V18.6761C13.738 17.9926 13.1839 17.4385 12.5004 17.4385C11.8169 17.4385 11.2628 17.9926 11.2628 18.6761V21.1514Z" fill="#EEF0F2" fill-opacity="0.85"/>
</svg>
