<svg width="25" height="26" viewBox="0 0 25 26" fill="none" xmlns="http://www.w3.org/2000/svg">
<path fill-rule="evenodd" clip-rule="evenodd" d="M11.8433 0.741311C8.02736 0.931674 4.4821 2.8947 2.25778 6.04892C1.01538 7.81074 0.273589 9.82026 0.0414614 12.0529C-0.013062 12.5776 -0.0140001 13.8794 0.0397728 14.4169C0.406727 18.0843 2.31486 21.3621 5.31402 23.4771C7.07584 24.7195 9.08537 25.4613 11.318 25.6934C11.8427 25.748 13.1445 25.7489 13.682 25.6951C17.3494 25.3282 20.6272 23.42 22.7422 20.4209C23.9846 18.6591 24.7264 16.6495 24.9585 14.4169C25.0131 13.8922 25.014 12.5904 24.9602 12.0529C24.5933 8.38547 22.6851 5.10769 19.686 2.99268C17.415 1.3912 14.6613 0.600744 11.8433 0.741311ZM11.5244 3.27671C9.51979 3.51439 7.77497 4.22222 6.2709 5.40788C5.91382 5.68936 4.95896 6.64256 4.68897 6.98704C3.58721 8.39279 2.88535 9.99453 2.60564 11.7415C2.50759 12.354 2.50759 14.1258 2.60564 14.7171C2.90133 16.5001 3.59854 18.101 4.67299 19.464C4.95446 19.8211 5.90766 20.7759 6.25214 21.0459C7.65789 22.1477 9.25963 22.8496 11.0066 23.1293C11.6191 23.2273 13.391 23.2273 13.9822 23.1293C15.7647 22.8336 17.3577 22.1401 18.7291 21.0627C19.1409 20.7391 20.1331 19.7257 20.4412 19.3139C21.4818 17.9229 22.1244 16.4142 22.3944 14.7283C22.4924 14.1158 22.4924 12.3439 22.3944 11.7527C22.0987 9.96965 21.4015 8.36877 20.327 7.0058C20.0455 6.64871 19.0923 5.69386 18.7479 5.42387C17.3506 4.32871 15.7543 3.6267 14.0198 3.34448C13.6597 3.28586 11.8592 3.23697 11.5244 3.27671ZM12.1482 7.0273C11.0439 7.3809 10.9333 8.87168 11.9747 9.36576C12.1502 9.44903 12.2315 9.46355 12.5188 9.46292C12.7939 9.46232 12.8888 9.44625 13.0304 9.37638C13.3107 9.23814 13.499 9.05134 13.6335 8.77805C13.7422 8.55737 13.757 8.49088 13.7569 8.22614C13.7568 7.97333 13.74 7.89112 13.6525 7.71261C13.5201 7.44255 13.2861 7.20678 13.0362 7.09173C12.7824 6.97484 12.3988 6.947 12.1482 7.0273ZM12.1482 10.7798C11.6605 10.9358 11.3464 11.303 11.2635 11.8138C11.2103 12.1418 11.2108 18.0838 11.2641 18.4122C11.3863 19.1656 12.1153 19.6514 12.8173 19.4473C13.3306 19.2981 13.6508 18.9361 13.7365 18.4085C13.7897 18.0805 13.7892 12.1385 13.7359 11.8101C13.686 11.5023 13.5464 11.2454 13.3174 11.0395C13.018 10.7703 12.5221 10.6602 12.1482 10.7798Z" fill="#1E1B23"/>
</svg>
