<svg width="20" height="20" viewBox="0 0 20 20" fill="none" xmlns="http://www.w3.org/2000/svg">
<path fill-rule="evenodd" clip-rule="evenodd" d="M7.5 2.5C7.5 1.11927 8.61933 0 10 0C11.3807 0 12.5 1.11927 12.5 2.5C12.5 2.78492 12.4523 3.05871 12.3645 3.31383C16.1881 4.3522 19 7.84772 19 12C19 13.1169 18.7961 14.1877 18.4233 15.176C19.347 15.5433 20 16.4454 20 17.5C20 18.8807 18.8807 20 17.5 20H2.5C1.11927 20 0 18.8807 0 17.5C0 16.4454 0.652991 15.5433 1.57672 15.176C1.2039 14.1877 1 13.1169 1 12C1 7.84772 3.81195 4.3522 7.63546 3.31383C7.54766 3.05871 7.5 2.78492 7.5 2.5ZM10 3C10.2761 3 10.5 2.77613 10.5 2.5C10.5 2.22387 10.2761 2 10 2C9.72387 2 9.5 2.22387 9.5 2.5C9.5 2.77613 9.72387 3 10 3ZM10 5C6.13401 5 3 8.13401 3 12C3 13.075 3.24172 14.0916 3.67337 15H16.3266C16.7583 14.0915 17 13.075 17 12C17 8.134 13.866 5 10 5ZM16.9106 17H3.08937C3.07724 17.0002 3.06512 17.0002 3.05301 17H2.5C2.22387 17 2 17.2239 2 17.5C2 17.7761 2.22387 18 2.5 18H17.5C17.7761 18 18 17.7761 18 17.5C18 17.2239 17.7761 17 17.5 17H16.947C16.9348 17.0002 16.9227 17.0002 16.9106 17ZM9 7C9 6.44772 9.44772 6 10 6C11.3844 6 12.5783 6.27785 13.5866 6.89834C14.5961 7.51955 15.3338 8.43144 15.8944 9.55279C16.1414 10.0468 15.9412 10.6474 15.4472 10.8944C14.9532 11.1414 14.3526 10.9412 14.1056 10.4472C13.6662 9.56856 13.1539 8.98045 12.5384 8.60166C11.9217 8.22215 11.1156 8 10 8C9.44772 8 9 7.55228 9 7Z" fill="#EEF0F2" fill-opacity="0.85"/>
</svg>
