<svg width="25" height="23" viewBox="0 0 25 23" fill="none" xmlns="http://www.w3.org/2000/svg">
<path fill-rule="evenodd" clip-rule="evenodd" d="M6.88566 0.00864054C6.13328 0.14717 5.79734 0.249803 5.31202 0.489244C4.17141 1.05201 3.24965 2.0752 2.81105 3.26544C2.59912 3.84052 2.52635 4.27602 2.52721 4.96425C2.52804 5.63081 2.58089 5.99706 2.75179 6.52064C2.99374 7.26183 3.41015 7.93261 3.98224 8.50264C5.29851 9.81427 7.14767 10.2872 8.93725 9.76984C10.2021 9.40418 11.3651 8.42437 11.9755 7.21006C12.7472 5.67468 12.6658 3.79093 11.7658 2.35742C11.0479 1.21389 9.98245 0.441858 8.66674 0.111761C8.35124 0.0325961 8.18179 0.0149664 7.63426 0.00422392C7.274 -0.00281296 6.93713 -0.000866734 6.88566 0.00864054ZM6.96681 2.54877C6.66332 2.61783 6.1685 2.85921 5.94145 3.04895C5.34488 3.54755 5.03694 4.20681 5.03803 4.98296C5.0387 5.4331 5.11154 5.73067 5.31883 6.12979C5.74883 6.95778 6.55392 7.44336 7.50326 7.44737C8.47427 7.45149 9.30028 6.94064 9.7329 6.06844C10.0859 5.35678 10.0784 4.59538 9.711 3.85108C9.42032 3.26207 8.93111 2.83964 8.28892 2.6231C7.91768 2.4979 7.33456 2.46511 6.96681 2.54877ZM16.7905 3.78726C15.3135 4.08071 14.1636 5.19692 13.8234 6.66732C13.7228 7.10226 13.7309 7.89949 13.8405 8.34322C14.169 9.67357 15.1522 10.6926 16.4865 11.0858C16.9657 11.227 17.7202 11.2542 18.227 11.1485C18.7206 11.0456 19.1305 10.8782 19.5218 10.6196C20.9121 9.70093 21.5441 8.04008 21.1056 6.45764C20.7386 5.13329 19.6058 4.0803 18.2462 3.79968C17.8448 3.71681 17.1738 3.71109 16.7905 3.78726ZM17.0996 6.29699C16.7002 6.43556 16.3657 6.81907 16.2787 7.23825C16.1694 7.76463 16.4578 8.3442 16.9484 8.58397C17.1288 8.6722 17.2075 8.68762 17.4784 8.68807C17.745 8.68848 17.8309 8.6725 18.008 8.58944C18.2655 8.46869 18.4831 8.25792 18.6042 8.01193C18.6809 7.85615 18.6949 7.77271 18.6949 7.47207C18.6949 7.05948 18.6158 6.85025 18.3651 6.59958C18.0584 6.2928 17.4979 6.1588 17.0996 6.29699ZM6.51136 11.2714C4.56282 11.5379 2.7467 12.5906 1.56975 14.1359C0.781542 15.1708 0.301013 16.3006 0.089832 17.6157C0.00666207 18.1336 -0.0342493 20.98 0.0355206 21.3938C0.107012 21.8175 0.331219 22.114 0.748267 22.3363L0.915542 22.4254L12.4253 22.4355C22.9165 22.4447 23.9515 22.4403 24.1208 22.3854C24.5262 22.2539 24.8374 21.9106 24.9496 21.471C25.0027 21.263 25.0087 21.0838 24.9911 20.2358C24.9687 19.154 24.9133 18.6509 24.7424 17.9766C23.9886 15.0033 21.5151 12.8716 18.3957 12.5071C16.6837 12.3071 15.0062 12.6922 13.5912 13.6103L13.2412 13.8373L12.7478 13.3591C11.5119 12.1612 10.064 11.4629 8.38384 11.2544C7.96066 11.202 6.95273 11.2111 6.51136 11.2714ZM6.8303 13.7647C4.9354 14.0406 3.39301 15.3287 2.78653 17.1418C2.59174 17.7241 2.54409 18.1058 2.54391 19.0848L2.54376 19.9363H12.5099L12.4894 19.0099C12.462 17.7683 12.3471 17.2357 11.9326 16.4278C11.6734 15.9228 11.3896 15.5417 10.9684 15.1333C10.2043 14.3922 9.28684 13.9374 8.23315 13.7774C7.84713 13.7187 7.18664 13.7127 6.8303 13.7647ZM17.0854 14.9843C16.3193 15.0539 15.5368 15.3395 14.8278 15.8084C14.5921 15.9642 14.5222 16.0291 14.5402 16.0757C14.6441 16.3447 14.8282 17.0428 14.8969 17.4285C14.9649 17.81 14.9837 18.0847 14.9985 18.9164L15.0166 19.9363H22.4681L22.4438 19.5152C22.3364 17.655 21.2018 16.0555 19.4912 15.3532C18.7862 15.0638 17.8279 14.9168 17.0854 14.9843Z" fill="#EEF0F2" fill-opacity="0.85"/>
<path fill-rule="evenodd" clip-rule="evenodd" d="M6.86694 0.0263077C4.69955 0.324065 3.0046 1.94966 2.59635 4.12207C2.51303 4.56543 2.51303 5.35409 2.59635 5.82514C2.77549 6.83789 3.26077 7.76908 3.98897 8.49725C5.33414 9.84245 7.29571 10.3007 9.11665 9.69528C9.82584 9.45947 10.6418 8.93219 11.153 8.37949C11.4397 8.06935 11.8026 7.55397 11.9761 7.21025C12.1278 6.9098 12.3283 6.31222 12.4096 5.91872C12.5034 5.46458 12.5054 4.51977 12.4135 4.05806C12.0105 2.03264 10.4526 0.468284 8.45084 0.079047C8.07212 0.00542177 7.22444 -0.0228382 6.86694 0.0263077ZM6.85579 2.56954C5.35757 2.96203 4.58273 4.67563 5.27362 6.06844C5.72776 6.98395 6.61845 7.50995 7.63426 7.46253C8.65528 7.41484 9.51936 6.76554 9.87128 5.78154C9.99937 5.42333 10.0319 4.76767 9.93978 4.39965C9.76408 3.69746 9.26237 3.06291 8.64488 2.76197C8.46989 2.67667 8.22633 2.58144 8.10364 2.55038C7.79024 2.47099 7.19723 2.48008 6.85579 2.56954ZM16.8579 3.78486C16.1064 3.91774 15.4609 4.25293 14.8869 4.80828C13.0632 6.57285 13.5076 9.59268 15.7662 10.7837C17.8755 11.896 20.484 10.7372 21.1146 8.40783C21.1891 8.13264 21.2005 8.00373 21.199 7.45336C21.1974 6.87143 21.1886 6.78826 21.0956 6.48017C20.6937 5.14908 19.7146 4.18626 18.4281 3.8571C17.9611 3.73762 17.2976 3.70708 16.8579 3.78486ZM16.9731 6.34355C16.7142 6.46647 16.4618 6.721 16.3432 6.97889C16.2268 7.23188 16.2293 7.71728 16.3483 7.97738C16.456 8.21267 16.693 8.45944 16.9357 8.58873C17.1025 8.67766 17.1635 8.68852 17.4971 8.68852C17.8413 8.68855 17.8874 8.67968 18.07 8.57859C18.6571 8.25328 18.8945 7.55524 18.6218 6.95554C18.3401 6.33603 17.5818 6.05455 16.9731 6.34355ZM6.75465 11.2565C3.61014 11.5872 0.993659 13.8586 0.247188 16.9058C0.0643044 17.6524 0.0359324 18.042 0.0359324 19.8058C0.0359324 21.3533 0.0396006 21.4405 0.112814 21.6362C0.214437 21.9078 0.472256 22.1894 0.739508 22.3206L0.952972 22.4254H24.0474L24.2608 22.3206C24.5309 22.188 24.7858 21.9079 24.8909 21.6283C24.9684 21.4222 24.9706 21.3726 24.9542 20.1983C24.9361 18.9128 24.9174 18.7344 24.7159 17.9338C24.0736 15.3823 22.055 13.381 19.4525 12.7155C18.5147 12.4757 17.33 12.4059 16.4678 12.5397C15.3913 12.7067 14.2851 13.1371 13.4621 13.7093L13.2394 13.8642L12.8417 13.4631C12.2493 12.8656 11.5377 12.3445 10.8314 11.9911C9.63465 11.3921 8.09802 11.1153 6.75465 11.2565ZM6.64236 13.7831C5.62935 13.9638 4.70557 14.4493 3.98149 15.1813C3.31291 15.8572 2.91929 16.5474 2.67798 17.4668C2.5518 17.9476 2.50633 18.418 2.50633 19.2424V19.9363H12.5082L12.4891 18.9538C12.4752 18.2425 12.4533 17.8989 12.4097 17.7092C12.1745 16.6871 11.7385 15.8822 11.0404 15.1813C10.3149 14.4529 9.36578 13.9573 8.35944 13.7813C7.94471 13.7087 7.0538 13.7097 6.64236 13.7831ZM16.8284 14.9968C16.4087 15.0629 15.8854 15.2244 15.5098 15.4038C15.1178 15.591 14.5677 15.9395 14.5367 16.0203C14.5269 16.0458 14.5706 16.2247 14.6337 16.4178C14.8912 17.2058 15.0078 18.1065 15.0079 19.3094L15.008 19.9363H18.751C22.3993 19.9363 22.4941 19.9345 22.4941 19.8654C22.4941 19.6532 22.4066 18.9793 22.3451 18.7174C22.2404 18.2715 22.1323 17.9772 21.922 17.5642C21.2671 16.2786 20.0737 15.3849 18.5826 15.0635C18.1948 14.9799 17.1807 14.9414 16.8284 14.9968Z" fill="#EEF0F2" fill-opacity="0.85"/>
</svg>
