<svg xmlns="http://www.w3.org/2000/svg" width="50" height="50" viewBox="0 0 1248 1248" fill="none"><path fill-rule="evenodd" clip-rule="evenodd" d="M590 1.103C464.589 8.1 347.546 51.134 247.288 127.11 141.764 207.076 64.009 319.065 26.092 445.693 2.625 524.063-5.288 609.767 3.58 689.5c3.448 31.008 6.608 49.703 12.996 76.89 35.635 151.659 126.318 283.75 255.924 372.78 71.902 49.39 155.33 83.62 240.596 98.7 43.01 7.61 65.15 9.51 110.904 9.51s67.894-1.9 110.904-9.51c35.308-6.25 74.696-17.05 108.142-29.66 150.318-56.69 273.904-169.83 343.304-314.283 40.59-84.483 61.65-176.549 61.63-269.427-.02-59.855-9.1-122.118-26.07-178.807-41.36-138.112-129.5-257.752-249.964-339.294C889.081 50.308 790.932 14.336 692.721 4.062 655.281.145 623.548-.769 590 1.103m-5.5 18.015c-55.541 3.281-119.22 17.004-173.5 37.39-66.831 25.1-132.429 64.518-186.733 112.209-16.404 14.406-51.191 49.954-63.885 65.283-43.519 52.551-75.198 105.361-99.576 166-18.411 45.793-33.137 103.165-38.245 149-3.639 32.646-4.057 40.493-4.028 75.5.042 48.272 2.563 75.036 11.116 118 5.129 25.762 12.64 53.777 20.736 77.344 10.783 31.388 28.412 71.872 30.852 70.852.695-.29 8.463-3.654 17.263-7.475 45.675-19.833 95.409-37.227 133.859-46.815l10.86-2.708-.602-6.099c-1.383-14.01-1.835-68.525-.697-84.099 8.127-111.26 52.031-210.498 123.08-278.203 57.338-54.639 132.625-87.84 217-95.693 43.223-4.022 86.039-2.436 121 4.482 97.501 19.295 176.838 68.74 234.13 145.914 33.286 44.838 57.793 99.565 69.86 156 6.24 29.223 8.65 47.431 9.93 75.312.48 10.347 1.05 18.993 1.27 19.213s2.86-.261 5.86-1.07c7.02-1.896 34.29-6.87 48.51-8.852 37.01-5.155 77.17-3.583 125.37 4.907 10.31 1.817 14.62 2.224 15.11 1.427 1.12-1.809 9.92-47.477 11.45-59.437 4-31.191 4.95-47.067 4.97-83 .02-34.925-.43-43.269-4.02-75.5-5.05-45.353-20.14-104.13-38.23-149-11.15-27.643-27.05-60.062-40.76-83.065-7.1-11.917-23.93-37.88-28.48-43.935-1.45-1.925-6.18-8.225-10.51-14-38.51-51.334-89.94-100.245-143.523-136.508-90.811-61.454-195.695-97.231-303.298-103.458-20.318-1.176-55.456-1.137-76.139.084m15.626 85.207c-6.13 15.758-16.112 24.753-35.626 32.1-1.615.608-.93 1.089 3.555 2.496 16.847 5.283 26.431 15.258 34.652 36.065.963 2.436 1.008 2.406 2.275-1.5 2.178-6.714 6.891-15.34 10.664-19.516 6.659-7.371 13.254-11.4 26.854-16.409 1.615-.595.831-1.165-4.077-2.96-16.054-5.875-25.682-15.121-31.964-30.701l-3.139-7.787zM337.018 309.753c-2.232 4.959-5.086 9.219-8.39 12.524-4.415 4.414-7.354 6.159-17.628 10.464-2.362.99-2.389 1.087-.5 1.761 12.586 4.49 21.433 12.229 26.635 23.298 1.851 3.938 3.597 7.169 3.88 7.18.284.011 1.297-2.181 2.252-4.87 3.791-10.673 12.815-20.111 22.733-23.777 2.475-.915 4.863-1.975 5.307-2.355s-1.975-1.732-5.375-3.004c-8.931-3.339-16.925-11.051-21.762-20.992l-3.77-7.746zM598.5 384.031c-28.625 1.688-63.796 8.084-91.328 16.609-87.717 27.159-156.262 84.934-200.934 169.365-25.566 48.32-43.312 111.04-48.185 170.299-1.909 23.216-.905 86.177 1.411 88.493.211.211 12.68-2.136 27.71-5.215 63.417-12.995 116.456-18.631 190.326-20.225l31-.669v-18.739c0-21.639.229-21.04-10-26.186-24.725-12.439-40.791-29.878-48.439-52.582-3.556-10.557-2.129-21.263 3.726-27.939 1.492-1.701 6.313-4.98 10.713-7.286 19.854-10.406 30.878-23.521 39.096-46.513 1.871-5.235 4.263-11.189 5.316-13.231 9.218-17.881 29.789-23.212 49.549-12.841 24.108 12.653 43.567 52.955 43.518 90.129-.028 20.373-4.9 32.342-18.979 46.62-9.534 9.669-20.149 16.968-36.75 25.27-6.187 3.095-11.25 5.966-11.25 6.381 0 2.37 9.002 36.527 9.917 37.63.804.968 6.275 1.509 20.342 2.009 17.856.635 36.686 1.75 52.991 3.137l6.75.574v-34.56c0-33.228.077-34.638 2-36.561 2.408-2.408 2.917-2.447 5.777-.443 2.221 1.555 2.223 1.592 2.223 34.453 0 31.017.527 37.9 2.911 38.02.324.016 6.889.682 14.589 1.479s15.013 1.459 16.25 1.47L671 813v-29.944c0-29.633.023-29.971 2.25-32.49l2.25-2.546 24-.089c13.2-.049 24.804.226 25.787.611 4.031 1.58 4.401 4.612 4.471 36.645.037 16.877.342 31.553.678 32.612.484 1.524 2.069 2.123 7.588 2.87l6.976.945v-38.736c0-42.43-.009-42.368 5.853-41.682 4.921.575 5.116 2.229 5.132 43.509l.015 38.204 3.25.543c1.788.298 8.65 1.245 15.25 2.105s25.95 3.541 43 5.96 34.375 4.686 38.5 5.04l7.5.644 13-7.141c13.397-7.358 54.139-27.921 63-31.796 15.674-6.855 26.968-11.226 43.5-16.836l18.5-6.278-.16-14.214c-.29-24.506-4.576-58.424-10.877-86.009-7.301-31.965-20.853-68.742-35.554-96.489-18.917-35.705-38.413-62.104-66.835-90.497-33.447-33.415-69.648-57.437-115.574-76.689-30.164-12.645-71.016-22.83-105.08-26.199-14.991-1.482-51.845-2.028-68.92-1.022m395.522 68.748c-4.63 11.408-11.717 18.417-23.607 23.345l-5.441 2.255 7.263 3.356c9.654 4.462 15.982 10.711 20.785 20.525l3.797 7.76 4.071-8.406c4.8-9.914 10.19-15.2 20.3-19.911l6.71-3.129-7.96-3.9c-9.5-4.657-15.42-10.72-20.286-20.773l-3.31-6.843zm-460.951 150.33c-1.885.573-5.352 2.364-7.703 3.982-4.678 3.218-8.838 10.755-13.82 25.035-5.109 14.643-15.741 29.521-27.087 37.903-2.805 2.072-8.747 5.601-13.205 7.842-8.652 4.35-10.709 6.422-12.329 12.416-3.159 11.684 10.025 33.436 29.573 48.792 3.878 3.047 14.189 9.921 14.881 9.921.187 0 .578-2.613.868-5.806.599-6.612 4.058-14.067 11.42-24.616 6.181-8.855 9.365-11.304 13.026-10.016 1.485.522 3.588 2.471 4.674 4.33 2.969 5.083 6.627 21.56 6.629 29.858.002 5.543.331 7.25 1.4 7.25.769 0 5.472-2.039 10.451-4.532 16.852-8.436 32.395-26.018 37.619-42.555 3.879-12.281 3.243-22.477-2.917-46.733-6.394-25.174-18.47-42.975-34.166-50.364-6.865-3.231-14.197-4.259-19.314-2.707m154.299 52.513c-.621.256-7.795 7.533-15.942 16.171A54066 54066 0 0 1 641.969 703C611.175 735.591 603 744.878 603 747.269c0 3.083 1.785 4.731 5.124 4.731 2.282 0 8.556-6.123 38.682-37.75 19.778-20.763 37.539-39.254 39.469-41.092 4.18-3.98 5.177-3.68 11.725 3.527 8.618 9.486 51.514 55.367 64.105 68.567 7.515 7.879 10.796 9.447 13.695 6.548 3.171-3.171.924-7.049-12.055-20.8a39029 39029 0 0 0-14.165-15c-13.303-14.079-35.218-37.484-44.916-47.97-11.174-12.082-13.691-13.888-17.294-12.408m-165.703 70.909c-11.362 14.414-12.739 24.026-3.785 26.437 5.902 1.589 9.993.362 11.863-3.56 1.449-3.038 1.431-4.147-.22-13.547-2.982-16.971-2.389-16.267-7.858-9.33m160.785 33.735c-.268.696-.366 13.183-.219 27.75l.267 26.484 16 1.678c8.8.923 16.788 1.71 17.75 1.75 1.629.067 1.75-1.972 1.75-29.428V759h-17.531c-13.219 0-17.651.311-18.017 1.266m-161.785 12.401c-.367.366-.667 7.116-.667 15V802h6.5c4.522 0 6.506-.38 6.521-1.25.011-.687-1.416-7.437-3.172-15-3.117-13.422-3.256-13.75-5.854-13.75-1.464 0-2.962.3-3.328.667m582.333.986c-10.17.557-32.1 3.232-48 5.852-35.59 5.868-79.432 19.755-116.501 36.905-15.175 7.021-47.882 23.969-46.847 24.276.466.137 15.473 2.058 33.348 4.268s41.725 5.355 53 6.99c45.22 6.559 78.9 8.679 112.45 7.081 47.87-2.28 68.7-5.199 90.75-12.714 8.95-3.048 7.71-1.03 16.46-26.75 6.56-19.292 10.6-33.433 10.01-34.985-.81-2.095-32.4-7.118-59.67-9.485-13.98-1.213-36.16-1.922-45-1.438m-654.747 46.41c-98.288 3.459-200.98 23.617-292.753 57.467-30.611 11.291-67.5 26.903-67.5 28.567 0 1.154 9.539 18.468 16.476 29.903 13.73 22.635 28.138 43.266 45.279 64.84 11.291 14.21 31.71 37.53 38.553 44.04l3.555 3.38 14.319.96c20.691 1.39 98.263.32 120.318-1.66 56.981-5.11 116.969-14.71 157.5-25.2 23.176-6 63.166-19.64 88-30.02 27.176-11.358 36.75-15.582 57.722-25.468 36.6-17.252 76.573-38.428 106.778-56.566 2.75-1.652 16.25-9.646 30-17.766s28.6-16.894 33-19.498 14.663-8.488 22.806-13.075 14.984-8.628 15.202-8.979c.217-.352-4.265-1.181-9.961-1.843-5.695-.662-17.485-2.324-26.201-3.693-16.076-2.525-54.488-7.57-90.846-11.93-25.224-3.026-90.824-8.982-121-10.987-46.46-3.087-98.094-3.99-141.247-2.472M859 857.689c-12.164 6.773-43.473 24.578-51.5 29.287-4.4 2.581-12.5 7.32-18 10.53-5.5 3.211-16.75 9.861-25 14.779L744 924.504c-82.405 49.106-182.052 93.476-252.5 112.436-35.891 9.66-100.5 20.76-145.5 25-35.357 3.34-85.181 5.1-115.5 4.08-11.55-.39-21.115-.62-21.255-.52-.486.34 27.299 24.42 38.451 33.33 49.461 39.48 109.261 72.97 169.804 95.08 16.511 6.03 50.315 16.36 59.356 18.14l6.357 1.25 2.641-3.4c10.212-13.15 31.148-35.12 44.646-46.85 21.51-18.7 38.73-30.2 63.146-42.17 24.983-12.26 47.519-19.07 77.854-23.55 16.893-2.49 61.912-2.51 79-.03 54.447 7.91 102.969 25.94 146.195 54.34 6.157 4.05 11.464 7.36 11.793 7.36s6.991-3.66 14.805-8.13c92.387-52.84 167.887-127.26 223.377-220.183 7.11-11.906 31.86-60.329 33.68-65.894.48-1.478.2-1.57-2.13-.687-12.92 4.911-43.58 8.757-87.27 10.945-34.48 1.726-72.43-.879-124.45-8.543-12.65-1.864-31.1-4.328-41-5.477-9.9-1.148-26.815-3.2-37.589-4.559-10.773-1.36-20.223-2.456-21-2.437-.776.019-4.336 1.663-7.911 3.654M689 1111.61c-14.003 1.26-30.7 3.78-39.191 5.91-47.588 11.94-87.394 35.11-124.629 72.53-10.648 10.7-24.744 26.74-24.065 27.38.713.67 16.282 3.54 29.885 5.51 37.858 5.48 58.344 7.03 93 7.03 35.046 0 50.764-1.16 89.5-6.6 55.732-7.83 114.092-25.41 167.265-50.39l11.265-5.29-8.265-5.33c-12.318-7.95-46.277-24.54-62.765-30.67-23.38-8.68-49.033-15.16-72-18.19-11.898-1.57-50.141-2.77-60-1.89" fill="#ffffff" fill-opacity=".286"/><path fill-rule="evenodd" clip-rule="evenodd" d="M586.5 1.62c-44.731 2.755-97.594 12.245-141.644 25.426-109.543 32.78-208.89 96.184-285.935 182.484C81.272 296.507 29.544 403.437 10.054 517.261 2.663 560.422.404 591.378 1.313 637c.63 31.596 1.558 44.971 4.731 68.219C19.153 801.261 51.782 888.302 104.551 968c53.829 81.3 126.371 148.98 212.449 198.21 63.687 36.42 136.627 61.9 211 73.71 58.862 9.35 133.138 9.35 192 0 115.731-18.37 222.917-68.17 311.5-144.71 78.27-67.63 139.77-155.755 176.09-252.312 19.08-50.725 32.64-110.261 37.44-164.398 1.77-19.922 2.34-68.147 1.08-90.5-4.69-82.851-25.73-163.203-62.2-237.5-76.64-156.136-215.321-273.946-380.766-323.454C764.86 15.59 730.948 8.9 683.5 3.443c-13.356-1.537-81.011-2.808-97-1.823m1 16.466c-87.654 5.817-170.562 29.2-246.895 69.632-69.325 36.72-132.062 87.695-183.116 148.786C108.415 295.226 69.977 364.978 46.451 438c-24.227 75.198-33.16 151.376-27.381 233.5 4.377 62.203 22.325 134.65 47.691 192.5 6.614 15.085 12.296 26.917 13.192 27.471.396.244 3.605-.923 7.133-2.594 36.323-17.205 94.379-38.069 141.299-50.781 8.186-2.218 15.096-4.244 15.355-4.503s-.112-6.911-.824-14.782c-1.831-20.245-1.594-62.376.473-83.811 7.641-79.262 30.882-147.924 70.236-207.5 36.642-55.47 87.009-98.573 146.875-125.692 46.955-21.271 98.235-32.204 157.207-33.517 52.979-1.18 101.059 6.525 147.531 23.643C838.307 418.85 898.67 465.562 943.651 530c35.705 51.15 61.289 118.997 69.279 183.714 1.65 13.358 3.36 34.501 4.34 53.351l.23 4.565 15-3.276c22.34-4.877 44.91-8.165 64.24-9.356 29.69-1.831 72.11 1.28 103.17 7.567 6.83 1.382 12.75 2.157 13.17 1.723 2.21-2.325 10.91-49.93 13.9-76.139 5.7-49.854 4.51-112.493-3.02-159.149-7.34-45.523-17.06-82.514-32.41-123.4-51.25-136.557-154.06-253.022-284.155-321.887C830.093 46.792 748.539 23.956 658.5 18.02c-17.218-1.135-53.408-1.102-71 .066m14.565 83.154c-4.467 15.13-15.451 26.669-31.651 33.254l-5.402 2.195 6.744 2.65c13.05 5.13 23.951 16.227 29.205 29.731l2.783 7.152 1.819-5.783c2.287-7.27 8.167-16.148 14.25-21.516 2.578-2.274 8.553-5.979 13.279-8.233l8.592-4.098-7.278-3.164c-15.269-6.638-23.813-15.846-29.404-31.688l-1.68-4.76zm-262.01 202.617c-.134 3.329-6.518 14.448-10.691 18.621-4.68 4.681-7.914 6.788-14.689 9.572l-3.824 1.572 7.509 3.711c8.964 4.431 14.452 10.156 19.243 20.077 2.597 5.376 3.479 6.486 3.975 5 3.932-11.777 11.479-20.417 22.466-25.719 4.101-1.979 6.781-3.624 5.956-3.655-3.163-.117-12.089-5.077-16.585-9.214-5.283-4.863-8.562-9.64-11.384-16.589-1.057-2.603-1.946-4.122-1.976-3.376M608 382.688c-39.687 1.847-86.473 11.157-120.333 23.945-81.593 30.815-143.896 87.798-185.063 169.261-28.74 56.871-44.399 121.742-46.281 191.733-.623 23.167.971 59.955 2.675 61.735.458.478 7.781-.742 16.451-2.74 27.48-6.332 71.6-13.505 102.051-16.59 38.162-3.866 59.187-5.13 95.25-5.724l36.25-.598v-39.336l-2.75-2.606c-1.513-1.434-5.346-3.747-8.519-5.141-12.324-5.413-27.842-18.301-36.342-30.182-1.946-2.72-5.417-8.77-7.713-13.445-4.069-8.283-4.176-8.759-4.176-18.66 0-9.677.143-10.364 3-14.417 2.219-3.148 5.419-5.58 12.289-9.34 21.183-11.591 30.546-23.051 40.296-49.319 5.761-15.52 10.239-21.234 20.221-25.804 10.813-4.95 26.123-2.765 38.03 5.427 15.18 10.444 29.086 34.742 35.262 61.613 2.251 9.791 2.759 14.393 2.765 25 .006 11.706-.279 13.838-2.866 21.417-6.784 19.88-20.862 33.428-50.997 49.08-6.6 3.428-12.303 6.519-12.673 6.868-1.067 1.005 6.831 33.666 9.25 38.254.674 1.279 3.225 1.76 12.138 2.29 39.821 2.367 59.949 3.681 64.535 4.213l5.25.608v-35.492c0-38.604.015-38.704 5.487-37.331l2.513.631.002 32.731c.001 29.158.192 33.113 1.75 36.231l1.748 3.5 16.5 1.65c9.075.907 16.725 1.43 17 1.161s.5-13.935.5-30.371c0-28.71.08-29.963 2.033-31.917 1.928-1.928 3.316-2.039 26.939-2.153 24.645-.118 24.927-.096 26.718 2.116 1.663 2.054 1.81 4.855 1.81 34.553 0 35.34.018 35.448 5.821 35.472 1.474.006 4.301.279 6.283.607l3.604.596.514-39.274c.478-36.508.643-39.368 2.337-40.607 2.143-1.567 3.393-1.649 5.441-.355 1.279.808 1.574 6.881 2 41.192l.5 40.244 15 2.212c8.25 1.216 32.341 4.549 53.535 7.407l38.536 5.195 24.964-13.279c36.666-19.504 54.889-27.976 81.465-37.874 8.525-3.175 19.1-6.811 23.5-8.079s8.54-2.799 9.21-3.401c2.53-2.302-1.46-51.454-6.631-81.595-4.464-26.017-15.549-62.765-26.847-89-44.313-102.904-126.977-176.402-233.265-207.401-39.499-11.52-85.005-16.864-126.967-14.911m386.725 70.224c-3.557 10.015-12.623 19.238-23.095 23.494l-5.399 2.194 6.135 2.358c7.992 3.072 18.045 12.954 21.654 21.285 1.364 3.147 2.718 5.731 3.01 5.74s1.412-2.255 2.489-5.033c3.951-10.188 11.731-17.838 22.661-22.279l5.61-2.278-5.15-1.824c-10.56-3.748-17.99-10.741-23.088-21.745l-3.117-6.728zM529.5 603.818c-6.878 3.233-11.673 9.523-15.384 20.182-1.818 5.225-5.611 14-8.429 19.5-4.273 8.342-6.62 11.492-14.162 19-7.098 7.067-10.971 10.007-18.036 13.688-4.948 2.579-10.345 6.096-11.993 7.816-2.766 2.887-2.996 3.685-2.996 10.387 0 6.533.427 8.122 4.265 15.868 3.052 6.158 6.405 10.881 11.781 16.597 6.764 7.19 21.356 19.017 27.204 22.048 2.112 1.095 2.251.965 2.271-2.119.052-8.045 10.413-28.207 18.306-35.622 3.391-3.187 7.477-2.603 10.203 1.456 2.941 4.38 6.97 22.375 6.97 31.131 0 3.988.321 7.25.712 7.25 2.272 0 12.474-4.644 17.879-8.137 17.47-11.292 31.097-30.194 33.947-47.087 2.608-15.465-5.715-50.786-16.121-68.417-4.733-8.019-15.551-18.543-22.616-22.002-7.543-3.693-17.805-4.356-23.801-1.539m147.59 62.918c-5.726 5.92-19.676 20.621-31 32.668-46.509 49.479-44.649 47.216-41.594 50.592.998 1.102 2.599 2.004 3.559 2.004.994 0 18.598-17.638 40.921-41 29.338-30.704 39.752-41 41.471-41 1.648 0 5.358 3.323 13.174 11.801C753.138 735.513 769.939 753 772.022 753c.918 0 2.484-.902 3.482-2.004 1.44-1.592 1.596-2.466.757-4.25-1.299-2.761-17.813-20.652-78.916-85.496-7.123-7.559-7.821-7.37-20.255 5.486m-155.82 59.222c-2.727 3.37-5.929 8.07-7.114 10.445-2.121 4.246-2.878 11.97-1.391 14.197 1.38 2.066 5.099 3.4 9.478 3.4 8.862 0 10.322-4.093 7.488-21-1.06-6.325-2.282-11.876-2.715-12.335s-3.018 1.922-5.746 5.293M681 786.441c0 17.133.374 27.672.996 28.056.846.524 32.106 4.448 35.754 4.489.973.011 1.25-6.645 1.25-29.986v-30h-38zm-159.75-14.735c-2.214.426-2.25.675-2.25 15.364V802h7.519c7.283 0 7.503-.071 7.007-2.25-.282-1.237-1.442-6.75-2.578-12.25-3.558-17.232-3.418-17.004-9.698-15.794m563.77 2.858c-17.82 1.763-29.88 3.787-51.02 8.558-42.371 9.563-82.379 24.733-127.441 48.324-12.971 6.79-16.486 9.029-15 9.555 1.068.377 6.666 1.231 12.441 1.897s27.375 3.467 48 6.224c59.93 8.009 65.8 8.737 79.4 9.836 27.3 2.206 74.97 1.059 104.6-2.517 23.32-2.814 49.04-9.047 52.78-12.794 2.65-2.645 18.93-50.207 19.46-56.823l.26-3.286-9.75-2.176c-31.77-7.093-81.01-10.036-113.73-6.798M451 819.096c-23.093.935-49.258 3.063-79.5 6.466-89.507 10.073-179.033 33.849-262.722 69.773-9.352 4.015-20.636 9.337-21.598 10.188-.452.401 3.139 7.288 10.132 19.433 16.673 28.957 33.229 53.072 55.609 81.004 7.3 9.11 32.816 37.77 36.694 41.22 2.713 2.41 25.758 3.82 62.215 3.81 87.201-.01 192.211-14.4 257.747-35.32 53.268-17 112.968-42.67 172.423-74.137 24.727-13.087 39.44-21.486 81.5-46.523 10.45-6.22 21.475-12.747 24.5-14.503s10.9-6.333 17.5-10.171 17.073-9.822 23.274-13.299 11.069-6.527 10.818-6.778c-.251-.252-8.7-1.519-18.774-2.816s-29.118-3.942-42.318-5.876c-27.542-4.037-92.733-11.739-118.5-14.001-95.915-8.42-153.022-10.734-209-8.47m412.283 35.71c-12.467 6.255-69.009 38.859-108.783 62.727-86.201 51.728-177.058 93.487-251 115.357-37.545 11.11-100.475 22.6-151 27.58-43.062 4.25-57.063 4.94-100.25 4.99-23.788.02-43.25.27-43.25.56 0 .75 12.596 11.98 26.5 23.61 56.926 47.65 120.69 83.65 192 108.41 14.727 5.11 51.846 15.96 54.631 15.96.898 0 2.896-1.69 4.441-3.75 6.019-8.03 21.7-25.26 32.551-35.76 50.886-49.22 105.426-73.85 173.877-78.53 67.259-4.6 145.002 17.22 205.845 57.77 10.849 7.23 7.241 7.79 28.51-4.46 102.815-59.23 188.535-150.891 241.065-257.77 9.43-19.193 13.05-27.361 12.42-27.994-.24-.238-2.89.231-5.89 1.042-19.48 5.27-56.71 9.273-93.95 10.102-38.26.853-58.67-.878-132.573-11.24-13.79-1.934-37.963-4.975-53.718-6.758-25.229-2.856-28.975-3.076-31.426-1.846M687 1110.99c-50.096 4.04-98.206 23.78-138.371 56.77-16.746 13.76-50.014 48.19-48.258 49.94 2.144 2.15 48.11 8.84 78.629 11.46 18.729 1.6 71.359 1.6 90-.01 18.279-1.58 44.777-4.74 56.5-6.74 39.089-6.67 82.814-18.94 121-33.95 11.262-4.42 37.504-15.88 43.86-19.15l2.861-1.48-3.361-2.26c-38.022-25.68-94.936-46.9-142.234-53.05-14.477-1.88-46.349-2.68-60.626-1.53" fill="#fff" fill-opacity=".962"/></svg>