<svg xmlns="http://www.w3.org/2000/svg" width="unset" height="50" viewBox="0 0 1246 240" fill="none"><path fill-rule="evenodd" clip-rule="evenodd" d="M971.983 1.434c-23.808 3.714-44.544 19.62-56.029 42.978-8.254 16.788-8.039 13.714-7.726 110.5l.272 84.5h14l.522-81.5H1050v82h14V155.5c0-68.917-.26-85.78-1.43-91.862-5.14-26.87-24.71-49.857-50.25-59.033-7.04-2.527-20.547-4.766-27.729-4.596-2.25.053-7.924.695-12.608 1.425M.667 2.58C.3 2.945 0 6.095 0 9.58v6.333h59.991l.509 223.5 13.491.591.509-223.59 59.5-.53V1.912H67.667c-36.484 0-66.634.3-67 .666M185 239.912h119v-14H199V157.93l104.5-.518.591-13.5H199v-128h105.091l-.591-13.5L185 1.896zM354.736 2.509c-.405.405-.736 53.986-.736 119.07v118.333h14v-81.833l27.25-.434c30.455-.485 33.18-.936 47.25-7.82 14.238-6.965 29.006-21.915 35.778-36.219 12.408-26.207 9.324-57.139-7.992-80.158-9.828-13.065-24.269-23.205-40.786-28.639-6.633-2.182-8.759-2.322-40.514-2.67-18.433-.2-33.845-.035-34.25.37m182 0c-.405.405-.736 53.986-.736 119.07v118.333h14v-81.811l27.25-.457c30.229-.506 32.244-.835 46.158-7.525 18.84-9.059 33.375-25.459 40.109-45.257 14.063-41.347-8.402-85.233-51.017-99.665-7.963-2.696-8.156-2.71-41.514-3.066-18.433-.197-33.845-.027-34.25.378m181.817.318c-.339.548.535 3.731 1.943 7.075 2.471 5.872 17.5 43.118 48.624 120.509 8.184 20.349 14.88 37.736 14.88 38.638s-1.839 6.978-4.086 13.502c-6.981 20.268-17.034 34.299-28.673 40.02-4.766 2.342-6.079 2.539-14 2.102-4.808-.266-9.471-.797-10.364-1.18-1.322-.568-1.957.535-3.422 5.946-2.093 7.733-2.069 7.768 6.545 9.571 7.881 1.648 18.826.586 25.516-2.477 18.195-8.329 28.601-22.907 40.42-56.621a5710 5710 0 0 1 9.536-27c1.871-5.225 6.608-18.725 10.526-30s8.889-25.45 11.045-31.5 6.629-18.763 9.939-28.25c15.581-44.66 18.159-52.01 19.513-55.638.799-2.138 1.213-4.276.92-4.75-.853-1.379-14.026-1.042-15.168.388-1.061 1.33-22.736 64.862-39.575 116-5.569 16.912-10.361 30.745-10.649 30.738-.519-.011-4.37-9.559-13.908-34.488-13.105-34.253-17.527-45.77-21.115-55-2.138-5.5-6.632-17.2-9.986-26s-7.552-19.6-9.326-24l-3.228-8-7.646-.29c-4.33-.165-7.913.141-8.261.705m396.187-.318c-.41.405-.74 53.986-.74 119.07v118.333h14v-81.811l27.25-.457c30.71-.515 32.56-.833 47.25-8.133 34.9-17.342 51.55-57.713 39-94.588-8.05-23.688-26.91-41.86-52-50.114-6.63-2.182-8.76-2.322-40.51-2.67-18.44-.2-33.85-.035-34.25.37M969.645 16.496c-16.011 3.876-32.838 17.76-40.498 33.416-2.288 4.675-4.607 10.924-5.153 13.886-.547 2.963-.994 22.201-.994 42.75v37.364h127.18l-.45-38.25c-.49-42.313-.57-42.922-7.36-56.75-7.3-14.864-24.57-28.713-40.47-32.463-7.959-1.875-24.413-1.85-32.255.047M368.5 143.412l24.5-.042c19.929-.035 25.69-.363 30.876-1.762 21.394-5.769 39.97-24.369 45.639-45.696 1.903-7.16 1.903-24.839 0-32-4.532-17.05-17.678-33.018-33.515-40.708-4.675-2.27-10.885-4.614-13.799-5.209-2.951-.603-16.138-1.083-29.758-1.083h-24.458zm182 0 24-.022c27.275-.025 30.918-.583 43.477-6.656 6.826-3.301 10.075-5.715 16.682-12.396C647.387 111.465 653 97.87 653 79.912c0-10.84-1.82-18.727-6.658-28.85-4.844-10.134-16.841-22.153-27.342-27.39-12.345-6.16-16.273-6.76-44.218-6.76h-24.797zm578 0 24.5-.042c27.66-.048 32.02-.754 44.38-7.195 10.24-5.343 22.2-17.457 26.93-27.303 4.99-10.376 6.69-17.739 6.69-28.96 0-11.23-1.7-18.584-6.71-28.993-4.89-10.178-16.68-21.944-27.3-27.248-12.33-6.157-16.26-6.759-44.21-6.759h-24.8z" fill="#fff" fill-opacity=".612"/><path fill-rule="evenodd" clip-rule="evenodd" d="M966.271 3.332c-27.179 7.212-48.368 28.677-55.272 55.99-1.922 7.604-1.999 11.225-1.999 93.75v85.84h12.978l.522-81.5 127.5-.515v82.015h13.07l-.57-176.5-2.73-8c-5.23-15.35-15.19-29.2-27.57-38.32-14.07-10.374-25.36-14.15-44.2-14.787-10.931-.369-13.659-.115-21.729 2.027M1 15.912h60v223h13v-223h60v-13H1zm184 223h118V226.93l-104.5-.518v-69l104.5-.518v-12.982H198v-128h105v-13H185zm170 0h13v-82h24.542c31.863 0 39.873-1.491 54.154-10.083 17.414-10.476 29.527-25.826 35.445-44.917 1.982-6.392 2.325-9.642 2.325-22 0-12.32-.347-15.628-2.311-22-7.969-25.863-29.517-46.417-55.565-53-7.088-1.792-11.218-2-39.75-2H355zm182 0h11.978l.522-81.5 28-.605c31.565-.682 34.616-1.207 47.873-8.226 18.728-9.917 33.693-28.475 39.245-48.669 2.485-9.036 2.494-30.946.016-39.908-6.72-24.316-27.077-45.754-51.134-53.85-7.97-2.683-8.129-2.694-42.25-3.027L537 2.792zM719.559 5.162c.382 1.237 4.511 11.7 9.176 23.25 7.741 19.167 26.221 65.064 47.891 118.94l8.423 20.941-2.216 7.559c-5.266 17.971-12.506 31.624-21.062 39.715-8.258 7.81-12.695 9.761-22.271 9.791-4.4.014-9.396-.349-11.103-.806l-3.103-.831-3.102 12.314 2.654 1.08c1.46.594 6.523 1.293 11.252 1.554 9.062.499 16.53-.996 23.99-4.802 9.789-4.994 21.85-20.264 28.551-36.146 1.784-4.23 7.52-19.98 12.746-35s12.924-36.984 17.105-48.809 8.66-24.65 9.951-28.5c1.29-3.85 6.246-18.025 11.013-31.5s9.551-27.11 10.634-30.3c1.082-3.192 3.08-8.758 4.44-12.37S857 4.276 857 3.792c0-.485-3.266-.88-7.257-.88h-7.257l-13.321 39.25c-7.326 21.587-18.494 54.886-24.818 73.999-6.323 19.113-11.924 34.75-12.447 34.75s-1.402-1.238-1.954-2.75-3.443-9.05-6.423-16.75C770.792 98.519 738.071 12.98 736.377 8.162l-1.846-5.25h-7.833c-7.662 0-7.818.05-7.139 2.25M1115 238.912h11.98l.52-81.5 27.5-.548c31.2-.621 35.22-1.309 48.31-8.254 18.69-9.924 34.06-28.823 39.18-48.198 2.49-9.39 3-24.525 1.19-34.909-4.62-26.424-25.71-50.41-52.18-59.342-7.98-2.692-8.1-2.7-42.25-3.034L1115 2.792zM970.844 15.452c-17.091 4.145-33.862 17.491-41.735 33.212-6.805 13.586-7.078 15.836-7.094 58.498l-.015 37.75h128v-37.053c0-46.26-.94-51.705-11.53-66.534-8.94-12.533-23.55-22.569-37.72-25.91-7.706-1.817-22.343-1.799-29.906.036M368 144.056l26.75-.379c26.045-.369 26.945-.45 34.144-3.062 9.399-3.41 14.156-6.246 21.437-12.777 13.184-11.828 20.399-26.84 21.408-44.546.86-15.089-2.815-28.127-11.264-39.968-9.002-12.616-22.117-21.613-37.084-25.44-6.616-1.693-11.097-1.973-31.551-1.973H368zm181 .022 54.5-.754 8.182-3.112c33.694-12.815 50.127-48.479 38.247-83.008-4.198-12.202-17.433-27.157-29.769-33.64-12.547-6.593-19.034-7.653-46.82-7.653H549zm578-.024 54.5-.699 8.3-3.171c18.92-7.225 33.5-22.513 39.36-41.273 3.41-10.923 3.25-28.29-.35-39.165-6.7-20.198-24.36-36.478-45.42-41.863-6.64-1.697-11.1-1.972-32.05-1.972H1127z" fill="#fff" fill-opacity=".929"/></svg>