<svg width="69" height="52" viewBox="0 0 69 52" fill="none" xmlns="http://www.w3.org/2000/svg">
<mask id="mask0_13_9" style="mask-type:alpha" maskUnits="userSpaceOnUse" x="0" y="0" width="69" height="52">
<path d="M28.0003 22.5001L32.155 18.0258C33.679 16.3847 34.6414 14.3013 34.9031 12.077V12.077C35.2803 8.87051 37.1043 6.01305 39.8539 4.32097L40.2759 4.06128C41.4169 3.35915 42.671 2.86037 43.9826 2.58713L50.7825 1.17049C52.9115 0.726944 55.1014 0.657392 57.2543 0.964944L60.1034 1.37196C60.6954 1.45653 61.2645 1.65859 61.7773 1.96625V1.96625C62.8735 2.624 63.6371 3.71817 63.8763 4.97403L65.5003 13.4998L68.0367 21.9547C68.3432 22.9762 68.4584 24.0455 68.3766 25.1088V25.1088C68.1432 28.1434 66.3347 30.8329 63.6125 32.194L54.7061 36.6472C53.5704 37.215 52.4774 37.8645 51.4357 38.5906L42.5791 44.7634C38.5603 47.5644 34.0644 49.6091 29.312 50.7971V50.7971C26.1161 51.5961 22.8342 52.0001 19.5398 52.0001H13.0498C11.6906 52.0001 10.3385 51.8017 9.03657 51.4111L3.25809 49.6775C1.8685 49.2606 0.822299 48.1111 0.537779 46.6885V46.6885C0.214835 45.0737 0.934376 43.4292 2.33948 42.5705L15.1514 34.741C17.0425 33.5854 18.7744 32.1873 20.3028 30.5824L28.0003 22.5001Z" fill="#0099A0"/>
</mask>
<g mask="url(#mask0_13_9)">
<rect x="-8" y="-26" width="100" height="100" fill="#0099A0"/>
<path d="M-0.517231 57.1529C-3.7491 53.2185 -0.0987339 47.2251 4.92795 48.0358C11.4406 49.0863 18.2581 49.8176 21.5 49C25.7501 47.9281 31.3256 44.8496 33.5367 43.5692C34.1828 43.1951 34.8041 42.7828 35.4117 42.3488L48.4275 33.0518C52.575 30.0893 54.1495 24.6688 52.2346 19.9453L51.0689 17.0699C49.3853 12.9171 51.4476 8.19229 55.6374 6.60307L61.465 4.39258C62.0502 4.17061 62.3678 3.53744 62.1959 2.93567V2.93567C61.9172 1.96012 62.8958 1.09818 63.8283 1.49785L75.2998 6.41421C77.5966 7.39853 79.2114 9.51219 79.5573 11.9869L81.4236 25.3381C83.7089 41.6867 72.799 56.9644 56.5937 60.1087L55.6485 60.2921C53.2243 60.7625 50.7538 60.9511 48.2863 60.8544L3.38848 59.0937C1.8692 59.0341 0.447861 58.3278 -0.517231 57.1529V57.1529Z" fill="#00858C"/>
</g>
</svg>
