<svg width="106" height="182" viewBox="0 0 106 182" fill="none" xmlns="http://www.w3.org/2000/svg">
<path fill-rule="evenodd" clip-rule="evenodd" d="M70.2155 0L38.462 52.3262C38.462 52.3262 35.7786 56.7985 35.3313 60.3764C35.3313 60.8236 35.3313 60.8236 35.3313 61.2708C37.5675 60.3764 39.8037 59.9291 42.4871 59.9291C50.5372 60.3764 56.3513 67.0848 55.904 75.135C55.904 75.5823 55.904 76.0295 55.904 76.924C56.3513 76.4767 56.7985 76.4767 56.7985 76.4767C60.3764 75.135 63.9542 71.1099 63.9542 71.1099L105.1 25.9395L87.6575 12.9697L70.2155 0ZM96.1549 25.9395C96.6022 25.4922 97.4966 25.4922 97.9439 25.9395C98.3911 26.3867 98.3911 27.2812 97.9439 27.7284L79.1601 48.3011C78.7129 48.7483 77.8184 49.1956 77.3712 48.3011C76.924 47.8539 76.924 47.4066 77.3712 46.5122L96.1549 25.9395ZM58.5874 51.8789C59.4819 52.7734 59.4819 54.1151 58.5874 55.0096C57.693 55.904 56.3513 55.4568 55.4568 54.5623C54.5623 53.6679 54.5623 52.3262 55.904 51.4317C56.7985 50.5372 58.1402 50.9845 58.5874 51.8789ZM61.2708 49.6428C63.507 51.8789 63.0598 55.4568 60.8236 57.693C58.5874 59.4819 55.0096 59.4819 52.7734 56.7985C50.9845 54.5623 50.9845 50.9845 53.6679 48.7483C55.904 46.9594 59.4819 46.9594 61.2708 49.6428ZM44.7232 72.4516C46.0649 74.2406 46.0649 76.4767 44.276 77.8184C42.9343 79.1601 40.2509 79.1601 38.9092 77.3712C37.5675 76.0295 37.5675 73.3461 39.3564 72.0044C41.1454 70.6627 43.3815 70.6627 44.7232 72.4516ZM33.0952 158.767V164.134L28.6229 165.476C31.3063 169.054 31.7535 169.948 31.7535 169.948C31.7535 170.395 31.7535 170.843 31.3063 171.29C30.859 171.29 30.4118 171.29 30.4118 170.843C30.4118 170.843 29.5173 169.948 27.2812 165.923L23.7033 166.818C25.4922 169.501 25.9395 169.948 25.9395 169.948C25.9395 170.395 25.9395 170.843 25.4922 171.29C25.045 171.29 24.5978 171.29 24.1505 170.843C24.1505 170.843 23.7033 170.395 21.9144 167.265L12.0753 169.501C12.0753 169.501 7.60295 170.395 4.02509 172.632C0.894465 174.421 0 180.235 0 181.129H50.09V158.767H34.8841H33.0952ZM45.1705 149.823H38.462V156.084H45.1705V149.823ZM38.462 87.6575H45.1705V147.139H38.462V87.6575ZM49.1956 68.8738C52.3262 72.8989 51.8789 78.7129 47.8539 82.2907C43.8288 85.4214 38.0147 84.9741 34.8841 80.949C31.3063 76.924 31.7535 71.1099 35.7786 67.5321C39.8037 64.4014 45.6177 64.8487 49.1956 68.8738Z" fill="#FEFEFE"/>
</svg>
