<svg width="109" height="182" viewBox="0 0 109 182" fill="none" xmlns="http://www.w3.org/2000/svg">
<path fill-rule="evenodd" clip-rule="evenodd" d="M70.4203 0L38.3633 52.5525C38.3633 52.5525 35.7357 57.2822 35.2102 60.4353C35.2102 60.9609 35.2102 61.4864 35.2102 62.0119C37.3123 60.9609 39.9399 60.4353 42.5675 60.4353C50.4504 60.9609 56.2311 67.7927 56.2311 75.6756C56.2311 76.2011 55.7056 76.7266 55.7056 77.2521C56.2311 77.2521 56.7567 76.7266 56.7567 76.7266C60.4353 75.6756 63.5885 71.4714 63.5885 71.4714L71.9969 62.5374L72.5224 61.4864C69.8948 61.4864 66.7416 60.4353 64.6395 59.9098C64.114 59.3843 64.114 59.3843 64.114 58.8588H64.6395C67.2672 59.9098 70.4203 60.4353 73.5735 60.9609C76.2011 60.9609 79.3542 60.9609 82.5074 60.9609C89.3392 60.4353 96.6966 59.3843 102.477 57.2822C102.477 57.2822 101.952 56.7567 102.477 56.7567C102.477 55.1801 104.054 53.6035 105.63 53.6035C107.207 53.6035 108.784 55.1801 108.784 57.2822C108.784 58.8588 107.207 60.4353 105.105 59.9098C104.054 59.9098 103.003 59.3843 102.477 58.3332C96.6966 59.9098 89.8647 61.4864 82.5074 62.0119C79.3542 62.0119 75.6756 62.0119 72.5224 61.4864L73.5735 60.9609L75.6756 58.3332L78.8287 55.1801L79.3542 54.129H78.8287H78.3032V54.6546H77.7777H77.2521H76.7266H76.2011H75.6756H75.15H74.6245L74.099 55.1801H73.5735H73.0479H72.5224H71.9969C71.4714 55.1801 70.4203 55.1801 69.3693 55.1801C68.8437 55.1801 68.3182 55.1801 67.2672 55.1801H66.7416C66.7416 55.7056 67.2672 55.7056 67.2672 55.7056C67.7927 55.7056 68.8437 55.7056 69.3693 55.7056C70.4203 55.7056 71.4714 55.7056 71.9969 55.7056H72.5224H73.0479H73.5735H74.099H74.6245H75.15H75.6756H76.2011H76.7266L77.2521 55.1801H77.7777H78.3032H78.8287C80.4053 54.6546 83.0329 54.129 85.135 53.6035C89.8647 52.0269 95.12 49.3993 100.375 45.7207C100.901 46.2462 101.952 46.7717 103.003 46.7717C104.579 46.7717 106.156 45.1951 106.156 43.6186C106.156 42.042 104.579 40.4654 103.003 40.4654C100.901 40.4654 99.3242 42.042 99.3242 43.6186C99.3242 44.1441 99.8497 44.6696 99.8497 45.1951C94.5945 48.8738 89.3392 50.9759 85.135 52.5525C83.0329 53.078 81.4563 53.6035 79.3542 54.129L83.5584 49.9248L105.105 26.2762L87.7626 13.1381L70.4203 0ZM48.8738 69.3693C52.5525 73.0479 52.0269 79.3542 47.8228 82.5074C44.1441 86.1861 37.8378 85.6605 34.6846 81.4563C31.006 77.7777 31.5315 71.4714 35.7357 68.3182C39.9399 64.6395 45.7207 65.1651 48.8738 69.3693ZM38.3633 87.7626H45.1951V147.672H38.3633V87.7626ZM33.1081 159.234V164.489L28.9039 166.066C31.006 169.744 31.5315 170.27 31.5315 170.27C32.057 170.796 31.5315 171.321 31.5315 171.847C31.006 171.847 30.4804 171.847 29.9549 171.321C29.9549 171.321 29.4294 170.796 27.3273 166.591C27.3273 166.591 26.8018 166.591 26.8018 166.066L23.6486 167.117C25.2252 169.744 25.7507 170.27 25.7507 170.27C25.7507 170.796 25.7507 171.321 25.2252 171.847C25.2252 171.847 24.6997 171.847 24.1741 171.321C24.1741 171.321 23.6486 170.796 22.072 167.642L12.0871 170.27C12.0871 170.27 7.35735 170.796 3.67867 172.898C0.525525 175 0 180.781 0 181.832H49.9248V159.234H34.6846H33.1081ZM45.1951 150.3H38.3633V156.606H45.1951V150.3ZM44.6696 73.0479C46.2462 74.6245 45.7207 77.2521 44.1441 78.3032C42.5675 79.8798 40.4654 79.3542 38.8888 77.7777C37.3123 76.2011 37.8378 73.5735 39.4144 72.5224C40.9909 70.9458 43.6186 71.4714 44.6696 73.0479ZM58.8588 50.4504C59.3843 50.9759 59.3843 51.5014 58.8588 52.0269C58.3332 52.5525 57.8077 52.5525 57.2822 52.0269C56.7567 52.0269 56.7567 51.5014 56.7567 50.9759L54.6546 48.8738L55.1801 48.3483L57.2822 50.4504C57.8077 49.9248 58.3332 49.9248 58.8588 50.4504ZM55.7056 54.6546V56.2311L54.6546 57.8077L55.7056 58.8588L53.6035 60.9609C53.6035 61.4864 53.6035 61.4864 53.6035 61.4864C54.129 62.0119 54.129 62.0119 54.129 61.4864L56.2311 59.3843L56.7567 59.9098C57.8077 60.4353 58.8588 60.4353 59.9098 59.3843L60.4353 58.8588L62.5374 60.9609C62.5374 60.9609 63.063 60.9609 63.063 60.4353C63.5885 60.4353 63.063 60.4353 63.063 59.9098L60.9609 58.3332L62.5374 55.7056L65.1651 57.8077H65.6906C65.6906 57.2822 65.6906 57.2822 65.6906 57.2822L63.063 55.1801L64.114 54.6546C64.114 54.129 64.114 53.6035 64.114 53.078H60.9609L60.4353 54.129C60.4353 54.6546 60.4353 55.1801 60.4353 55.7056C59.9098 56.2311 58.8588 56.2311 58.3332 56.2311C57.8077 55.7056 57.8077 54.6546 58.3332 54.129C58.8588 54.129 59.3843 53.6035 59.9098 54.129L60.9609 52.5525H64.114C64.114 52.5525 64.114 52.0269 63.5885 51.5014L63.063 50.9759L64.6395 48.8738V48.3483H64.114L62.0119 50.4504L59.9098 48.8738L61.4864 46.2462C62.0119 46.2462 62.0119 46.2462 61.4864 45.7207H60.9609L59.3843 48.3483L58.3332 47.8228C57.8077 46.7717 56.2311 47.2972 55.7056 47.8228L55.1801 48.3483L53.078 46.7717C52.5525 46.7717 52.5525 46.7717 52.0269 46.7717C52.0269 46.7717 52.0269 47.2972 52.5525 47.2972L54.6546 49.3993L52.5525 51.5014L50.4504 49.9248C50.4504 49.3993 49.9248 49.3993 49.9248 49.9248V50.4504L52.0269 52.0269L51.5014 53.078C50.9759 53.6035 50.9759 55.1801 52.0269 55.7056L52.5525 56.2311L50.9759 58.8588C50.4504 58.8588 50.4504 58.8588 50.9759 59.3843H51.5014L53.078 56.7567L54.129 57.8077L55.1801 56.2311V54.6546C54.6546 54.6546 54.6546 54.6546 54.129 54.6546C53.6035 54.129 53.6035 53.6035 54.129 53.078C54.6546 52.5525 55.1801 52.5525 55.7056 52.5525C56.2311 53.078 56.2311 54.129 56.2311 54.6546C55.7056 54.6546 55.7056 54.6546 55.7056 54.6546ZM72.5224 7.35735L77.2521 11.036C78.3032 11.5615 78.3032 12.0871 77.7777 13.1381C77.2521 13.6636 76.2011 13.6636 75.6756 13.1381L70.9458 9.98497C70.4203 9.45945 69.8948 8.4084 70.4203 7.88287C70.9458 6.83182 71.9969 6.83182 72.5224 7.35735Z" fill="#FEFEFE"/>
</svg>
