<svg width="110" height="182" viewBox="0 0 110 182" fill="none" xmlns="http://www.w3.org/2000/svg">
<path fill-rule="evenodd" clip-rule="evenodd" d="M47.2972 150.826L57.8077 115.09C58.3332 112.988 60.9609 104.579 56.2311 96.6966C54.6546 94.0689 53.078 92.4924 50.9759 91.4413C52.0269 90.9158 53.6035 90.3903 54.6546 89.3392C56.2311 88.2882 56.7567 86.1861 57.2822 84.084C57.2822 81.9819 56.7567 79.8798 55.1801 78.3032C55.1801 78.3032 55.1801 78.3032 54.6546 77.7777C55.1801 77.7777 55.1801 77.7777 55.7056 77.7777C57.2822 77.7777 58.8588 77.7777 60.4353 77.2521C60.9609 77.2521 61.4864 76.7266 61.4864 76.7266C62.0119 76.7266 62.5374 76.2011 63.063 76.2011C64.6395 75.15 66.2161 74.099 67.2672 72.5224C67.7927 71.9969 68.3182 71.4714 68.3182 71.4714L109.835 26.2762L92.4924 13.1381L75.15 0L43.093 52.5525C40.9909 56.2311 39.9399 58.8588 39.9399 62.5374C35.7357 69.8948 35.7357 76.7266 36.2612 84.084C36.2612 85.6605 36.2612 87.2371 36.2612 88.8137H35.7357V150.826H47.2972ZM77.7777 7.35735L81.9819 11.036C83.0329 11.5615 83.0329 12.0871 82.5074 13.1381C81.9819 13.6636 80.9308 13.6636 80.4053 13.1381L75.6756 9.98497C75.15 9.45945 75.15 8.4084 75.15 7.88287C75.6756 6.83182 76.7266 6.83182 77.7777 7.35735ZM48.3483 91.4413L45.7207 133.483C45.7207 134.534 45.1951 135.585 44.1441 135.06C43.093 135.06 42.5675 134.534 42.5675 133.483L45.1951 90.3903C46.2462 90.9158 47.2972 91.4413 48.3483 91.4413ZM43.6186 88.8137C43.093 88.8137 42.5675 88.8137 42.5675 88.8137H39.9399C39.9399 87.2371 39.9399 85.6605 39.4144 84.084C39.4144 78.8287 39.4144 73.5735 40.9909 67.7927C42.5675 71.4714 44.6696 74.099 47.8228 75.6756C46.2462 76.2011 45.1951 76.7266 44.1441 77.2521C42.5675 78.8287 41.5165 80.9308 41.5165 83.0329C41.5165 84.6095 42.042 86.7116 43.093 88.8137H43.6186ZM49.3993 75.6756L85.6605 27.3273C86.1861 26.2762 87.2371 26.2762 87.7626 26.8018C88.8137 27.3273 88.8137 28.3783 88.2882 28.9039L53.078 76.7266C52.0269 76.2011 50.9759 75.6756 49.9248 75.6756H49.3993ZM51.5014 81.4563C52.5525 83.0329 52.5525 84.6095 50.9759 85.6605C49.9248 86.7116 48.3483 86.7116 47.2972 85.6605C45.7207 84.084 46.2462 82.5074 47.2972 81.4563C48.8738 80.4053 50.4504 80.4053 51.5014 81.4563ZM55.7056 84.084C55.7056 82.5074 55.1801 80.9308 54.129 79.3542C53.078 78.3032 51.5014 77.2521 49.9248 77.2521C48.3483 77.2521 46.7717 77.7777 45.1951 78.8287C44.1441 79.8798 43.093 81.4563 43.093 83.0329C43.093 84.6095 43.6186 86.1861 44.6696 87.7626C45.7207 88.8137 47.2972 89.3392 48.8738 89.8647C50.4504 89.8647 52.0269 89.3392 53.078 88.2882C54.6546 87.2371 55.1801 85.6605 55.7056 84.084ZM33.6336 159.234V164.489L28.9039 166.066C31.5315 169.744 32.057 170.27 32.057 170.27C32.057 170.796 32.057 171.321 31.5315 171.847C31.5315 171.847 31.006 171.847 30.4804 171.321C30.4804 171.321 29.9549 170.796 27.3273 166.591C27.3273 166.591 27.3273 166.591 27.3273 166.066L24.1741 167.117C25.7507 169.744 26.2762 170.27 26.2762 170.27C26.2762 170.796 26.2762 171.321 25.7507 171.847C25.2252 171.847 24.6997 171.847 24.6997 171.321C24.6997 171.321 24.1741 170.796 22.072 167.642L12.6126 170.27C12.6126 170.27 7.88287 170.796 4.2042 172.898C1.05105 175 0.525525 180.781 0 181.832H50.4504V159.234H35.2102H33.6336ZM45.7207 152.928H38.8888V157.132H45.7207V152.928ZM62.0119 116.141L59.3843 115.615L56.7567 122.973L59.9098 124.024L62.0119 116.141Z" fill="#FEFEFE"/>
</svg>
