<svg width="107" height="182" viewBox="0 0 107 182" fill="none" xmlns="http://www.w3.org/2000/svg">
<path fill-rule="evenodd" clip-rule="evenodd" d="M72.0044 0L40.2509 52.7734C40.2509 52.7734 38.9092 55.0096 38.0147 57.693C37.1203 59.9291 36.673 61.7181 36.673 63.9542C36.673 65.2959 36.673 66.6376 37.1203 67.9793H36.673C35.3313 68.8738 33.9897 69.7682 33.0952 71.5572C29.5173 76.4767 31.3063 83.1852 36.2258 86.3158C36.2258 86.3158 36.673 86.7631 37.1203 86.7631H36.673V95.7077H38.462V159.215H34.8841H33.0952V160.556V164.581L12.0753 169.948C12.0753 169.948 7.60295 170.843 4.02509 173.079C0.894465 174.868 0 180.682 0 181.576H50.09V160.556V159.215H45.1705V95.7077H46.9594V86.7631H46.5122C48.3011 86.3158 49.6428 84.9741 50.9845 83.1852C51.8789 81.8435 52.3262 80.5018 52.3262 79.1601C56.7985 78.7129 60.8236 76.4767 63.0598 73.3461C64.4014 72.4516 65.2959 71.1099 65.2959 71.1099L106.889 25.9395L72.0044 0ZM97.9439 25.9395C98.3911 25.4922 99.2856 25.4922 99.7328 25.9395C100.18 26.3867 100.18 27.2812 99.7328 27.7284L80.949 48.3011C80.5018 48.7483 79.6073 49.1956 79.1601 48.3011C78.7129 47.8539 78.7129 47.4066 79.1601 46.5122L97.9439 25.9395Z" fill="#FEFEFE"/>
</svg>
