<svg xmlns="http://www.w3.org/2000/svg" width="179" height="232" viewBox="0 0 179 232" fill="none"><path d="M41.18.07v48.19c0 36.23 28.33 64.29 64.04 66.25v18.41c-7.64.83-15.25 3.45-22.17 8.01-22.98 15.13-29.76 45.79-15.14 68.5 9.2 14.29 24.68 22.01 40.62 22.01 9.39 0 18.95-2.69 27.47-8.29 22.98-15.13 29.76-45.79 15.14-68.5-8.74-13.58-23.16-21.22-38.26-21.94v-18.14c36.29-1.37 65.28-29.65 65.28-66.3V.07zm83.76 143.33c20.65 7.16 30.61 30.32 22.19 51.61a44.24 44.24 0 0 1-14.78 19.26c-11.23 8.33-25.41 10.71-37.94 6.37-9.97-3.46-17.78-10.71-21.98-20.42-4.23-9.77-4.3-20.85-.21-31.2A44.24 44.24 0 0 1 87 149.76c5.54-4.11 11.8-6.76 18.22-7.88v23.87h7.67v-24.48c4.08.07 8.15.77 12.05 2.13m43.23-95.14c0 31.61-25.49 56.37-58.03 56.37h-.92c-32.54 0-58.03-24.76-58.03-56.37V10.07h116.98zM0 15.73l24.4 7.2-.04.21L0 30.33v5.88l32.09 9.99v-6.01L7.72 33.38v-.1l24.37-7.14v-5.98L7.72 13.02l.01-.09 24.36-6.74V0L0 9.99zm32.09 34.76H0v5.47h32.09zM0 68.93h23.03L0 84.48v5.61h32.09v-5.38H8.87l23.22-15.68v-5.48H0zm0 51.31h5.06v-17.09h8.68v16.32h5.06v-16.32h8.23v17.09h5.06V97.68H0zm0 31.42c0 3.44.79 6.07 2.37 7.91s3.79 2.76 6.62 2.76c1.72 0 3.22-.47 4.5-1.4s2.19-2.2 2.73-3.8c.6 1.45 1.52 2.58 2.76 3.41s2.7 1.24 4.38 1.24q3.93 0 6.33-2.67c1.6-1.78 2.4-4.43 2.4-7.96v-12.97H0zm18.76-8.09h8.36v7.64c0 1.69-.37 2.95-1.11 3.8-.74.84-1.77 1.27-3.1 1.27-2.77 0-4.16-1.69-4.16-5.06v-7.64zm-13.79 0h8.77v8.05c0 1.66-.38 2.94-1.15 3.84s-1.85 1.36-3.23 1.36c-2.92 0-4.38-1.75-4.38-5.24v-8zM0 170.37l6.19 2.32v14.36L0 189.36v5.97l32.09-12.48v-5.83L0 164.59v5.79zm11.17 4.18 14.14 5.29v.07l-14.14 5.28zM0 204.59h12.66v7.37L0 218.47v6.42l13.33-7.37c.66 2.08 1.79 3.65 3.37 4.7s3.47 1.58 5.67 1.58c2.92 0 5.27-.9 7.05-2.71s2.67-4.43 2.67-7.87v-14.1H0zm27.03 0v8.68c0 1.66-.42 2.91-1.27 3.75s-1.97 1.27-3.39 1.27-2.55-.42-3.39-1.27c-.84-.84-1.27-2.09-1.27-3.75v-8.68z" fill="#fff"/></svg>