<svg xmlns="http://www.w3.org/2000/svg" width="233" height="137" viewBox="0 0 233 137" fill="#1D1D1B">
    <path d="M0.804688 136.98H48.9947C85.2247 136.98 113.285 108.65 115.245 72.94H133.655C134.485 80.58 137.105 88.19 141.665 95.11C156.795 118.09 187.455 124.87 210.165 110.25C224.455 101.05 232.175 85.57 232.175 69.63C232.175 60.24 229.485 50.68 223.885 42.16C208.755 19.18 178.095 12.4 155.385 27.02C141.805 35.76 134.165 50.18 133.445 65.28H115.305C113.935 28.99 85.6547 0 49.0047 0H0.804688V136.98ZM144.135 53.22C151.295 32.57 174.455 22.61 195.745 31.03C203.425 34.07 210.085 39.18 215.005 45.81C223.335 57.04 225.715 71.22 221.375 83.75C217.915 93.72 210.665 101.53 200.955 105.73C191.185 109.96 180.105 110.03 169.755 105.94C162.075 102.9 155.415 97.79 150.495 91.16C146.385 85.62 143.735 79.36 142.615 72.94H166.485V65.27H142.005C142.075 61.19 142.775 57.12 144.135 53.22ZM48.9947 9.99C80.6047 9.99 105.365 35.48 105.365 68.02V68.94C105.365 101.48 80.6047 126.97 48.9947 126.97H10.8047V9.99H48.9947Z" fill=""/>
</svg>