<svg xmlns="http://www.w3.org/2000/svg" width="232" height="137" viewBox="0 0 232 137" fill="white">
    <path d="M0 136.98H48.19C84.42 136.98 112.48 108.65 114.44 72.94H132.85C133.68 80.58 136.3 88.19 140.86 95.11C155.99 118.09 186.65 124.87 209.36 110.25C223.65 101.05 231.37 85.57 231.37 69.63C231.37 60.24 228.68 50.68 223.08 42.16C207.95 19.18 177.29 12.4 154.58 27.02C141 35.76 133.36 50.18 132.64 65.28H114.5C113.13 28.99 84.85 0 48.2 0H0V136.98ZM143.33 53.22C150.49 32.57 173.65 22.61 194.94 31.03C202.62 34.07 209.28 39.18 214.2 45.81C222.53 57.04 224.91 71.22 220.57 83.75C217.11 93.72 209.86 101.53 200.15 105.73C190.38 109.96 179.3 110.03 168.95 105.94C161.27 102.9 154.61 97.79 149.69 91.16C145.58 85.62 142.93 79.36 141.81 72.94H165.68V65.27H141.2C141.27 61.19 141.97 57.12 143.33 53.22ZM48.19 9.99C79.8 9.99 104.56 35.48 104.56 68.02V68.94C104.56 101.48 79.8 126.97 48.19 126.97H10V9.99H48.19Z" fill=""/>
</svg>