<?xml version="1.0" encoding="UTF-8"?>
<svg id="_Слой_2_копия_" data-name="Слой 2 (копия)" xmlns="http://www.w3.org/2000/svg" viewBox="0 0 194.78 254.06">
  <defs>
    <style>
      .cls-1 {
        fill: #1d1d1b;
      }
    </style>
  </defs>
  <path class="cls-1" d="m57.8.07v48.19c0,36.23,28.33,64.29,64.04,66.25v18.41c-7.64.83-15.25,3.45-22.17,8.01-22.98,15.13-29.76,45.79-15.14,68.5,9.2,14.29,24.68,22.01,40.62,22.01,9.39,0,18.95-2.69,27.47-8.29,22.98-15.13,29.76-45.79,15.14-68.5-8.74-13.58-23.16-21.22-38.26-21.94v-18.14c36.29-1.37,65.28-29.65,65.28-66.3V.07H57.8Zm83.76,143.33c20.65,7.16,30.61,30.32,22.19,51.61-3.04,7.68-8.15,14.34-14.78,19.26-11.23,8.33-25.41,10.71-37.94,6.37-9.97-3.46-17.78-10.71-21.98-20.42-4.23-9.77-4.3-20.85-.21-31.2,3.04-7.68,8.15-14.34,14.78-19.26h0c5.54-4.11,11.8-6.76,18.22-7.88v23.87h7.67v-24.48c4.08.07,8.15.77,12.05,2.13Zm43.23-95.14c0,31.61-25.49,56.37-58.03,56.37h-.92c-32.54,0-58.03-24.76-58.03-56.37V10.07h116.98v38.19Z"/>
  <polygon class="cls-1" points="16.62 15.73 41.02 22.93 40.98 23.14 16.62 30.33 16.62 36.21 48.71 46.2 48.71 40.19 24.34 33.38 24.34 33.28 48.71 26.14 48.71 20.16 24.34 13.02 24.35 12.93 48.71 6.19 48.71 0 16.62 9.99 16.62 15.73"/>
  <rect class="cls-1" x="16.62" y="50.49" width="32.09" height="5.47"/>
  <polygon class="cls-1" points="16.62 68.93 39.65 68.93 16.62 84.48 16.62 90.09 48.71 90.09 48.71 84.71 25.49 84.71 48.71 69.03 48.71 63.55 16.62 63.55 16.62 68.93"/>
  <polygon class="cls-1" points="16.62 120.24 21.68 120.24 21.68 103.15 30.36 103.15 30.36 119.47 35.42 119.47 35.42 103.15 43.65 103.15 43.65 120.24 48.71 120.24 48.71 97.68 16.62 97.68 16.62 120.24"/>
  <path class="cls-1" d="m16.62,151.66c0,3.44.79,6.07,2.37,7.91s3.79,2.76,6.62,2.76c1.72,0,3.22-.47,4.5-1.4,1.28-.93,2.19-2.2,2.73-3.8.6,1.45,1.52,2.58,2.76,3.41,1.24.83,2.7,1.24,4.38,1.24,2.62,0,4.73-.89,6.33-2.67,1.6-1.78,2.4-4.43,2.4-7.96v-12.97H16.62v13.47Zm18.76-8.09h8.36v7.64c0,1.69-.37,2.95-1.11,3.8-.74.84-1.77,1.27-3.1,1.27-2.77,0-4.16-1.69-4.16-5.06v-7.64Zm-13.79,0h8.77v8.05c0,1.66-.38,2.94-1.15,3.84-.77.9-1.85,1.36-3.23,1.36-2.92,0-4.38-1.75-4.38-5.24v-8Z"/>
  <path class="cls-1" d="m16.62,170.37l6.19,2.32v14.36l-6.19,2.31v5.97l32.09-12.48v-5.83l-32.09-12.43v5.79Zm11.17,4.18l14.14,5.29v.07s-14.14,5.28-14.14,5.28v-10.64Z"/>
  <path class="cls-1" d="m16.62,204.59h12.66v7.37l-12.66,6.51v6.42l13.33-7.37c.66,2.08,1.79,3.65,3.37,4.7s3.47,1.58,5.67,1.58c2.92,0,5.27-.9,7.05-2.71,1.78-1.81,2.67-4.43,2.67-7.87v-14.1H16.62v5.47Zm17.72,0h9.31v8.68c0,1.66-.42,2.91-1.27,3.75s-1.97,1.27-3.39,1.27-2.55-.42-3.39-1.27c-.84-.84-1.27-2.09-1.27-3.75v-8.68Z"/>
</svg>