<svg width="25" height="21" viewBox="0 0 25 21" fill="none" xmlns="http://www.w3.org/2000/svg">
<path fill-rule="evenodd" clip-rule="evenodd" d="M9.09471 0.79906C9.28017 0.520861 9.5924 0.35376 9.92676 0.35376H15.9268C16.2611 0.35376 16.5733 0.520861 16.7588 0.79906L18.4619 3.35376H21.9268C22.7224 3.35376 23.4855 3.66983 24.0481 4.23244C24.6107 4.79505 24.9268 5.55811 24.9268 6.35376V17.3538C24.9268 18.1494 24.6107 18.9125 24.0481 19.4751C23.4855 20.0377 22.7224 20.3538 21.9268 20.3538H3.92676C3.13111 20.3538 2.36805 20.0377 1.80544 19.4751C1.24283 18.9125 0.926758 18.1494 0.926758 17.3538V6.35376C0.926758 5.55811 1.24283 4.79505 1.80544 4.23244C2.36805 3.66983 3.13111 3.35376 3.92676 3.35376H7.39157L9.09471 0.79906ZM10.4619 2.35376L8.75881 4.90846C8.57334 5.18666 8.26111 5.35376 7.92676 5.35376H3.92676C3.66154 5.35376 3.40719 5.45912 3.21965 5.64665C3.03211 5.83419 2.92676 6.08854 2.92676 6.35376V17.3538C2.92676 17.619 3.03211 17.8733 3.21965 18.0609C3.40719 18.2484 3.66154 18.3538 3.92676 18.3538H21.9268C22.192 18.3538 22.4463 18.2484 22.6339 18.0609C22.8214 17.8733 22.9268 17.619 22.9268 17.3538V6.35376C22.9268 6.08854 22.8214 5.83419 22.6339 5.64665C22.4463 5.45912 22.192 5.35376 21.9268 5.35376H17.9268C17.5924 5.35376 17.2802 5.18666 17.0947 4.90846L15.3916 2.35376H10.4619ZM12.9268 8.35376C11.2699 8.35376 9.92676 9.69691 9.92676 11.3538C9.92676 13.0106 11.2699 14.3538 12.9268 14.3538C14.5836 14.3538 15.9268 13.0106 15.9268 11.3538C15.9268 9.69691 14.5836 8.35376 12.9268 8.35376ZM7.92676 11.3538C7.92676 8.59234 10.1653 6.35376 12.9268 6.35376C15.6882 6.35376 17.9268 8.59234 17.9268 11.3538C17.9268 14.1152 15.6882 16.3538 12.9268 16.3538C10.1653 16.3538 7.92676 14.1152 7.92676 11.3538Z" fill="#665CA4"/>
</svg>
