<svg viewBox="0 0 24 24" fill="none" xmlns="http://www.w3.org/2000/svg"><path fill-rule="evenodd" clip-rule="evenodd" d="M7.435 2.5h7.081a.5.5 0 0 1 .204.957l-.187.083c-1.16.516-2.788 1.24-4.145 2.384-1.416 1.194-2.502 2.812-2.437 5.105.068 2.379 1.21 3.806 2.511 4.423 1.33.631 2.823.43 3.7-.446.895-.893 1.133-2.352.724-3.617-.403-1.243-1.397-2.2-2.886-2.2a.5.5 0 1 1 0-1c2.011 0 3.33 1.327 3.837 2.892.5 1.545.246 3.42-.968 4.633-1.23 1.228-3.197 1.42-4.836.641-1.668-.791-3.004-2.575-3.081-5.297-.077-2.683 1.217-4.571 2.792-5.898.81-.683 1.704-1.225 2.536-1.66H7.46c-.636.023-1.625.3-2.45 1.067-.814.756-1.51 2.027-1.51 4.122v7.45a4.75 4.75 0 0 0 .997 2.729c.706.889 1.883 1.632 3.826 1.632h7.815c.71-.07 1.797-.427 2.705-1.279.903-.846 1.657-2.207 1.657-4.352V7.325a2.687 2.687 0 0 0-.537-1.46c-.364-.471-.964-.877-1.972-.894-1.003-.017-1.428.378-1.6.73a1.2 1.2 0 0 0-.117.597.748.748 0 0 0 .12.393c.336.43.636.44.79.395a.436.436 0 0 0 .316-.408.5.5 0 1 1 1 0c0 .644-.438 1.189-1.03 1.366-.627.187-1.328-.052-1.863-.735-.203-.26-.309-.604-.331-.946a2.2 2.2 0 0 1 .216-1.1c.373-.763 1.198-1.314 2.516-1.292 1.316.023 2.2.574 2.747 1.282a3.69 3.69 0 0 1 .745 2.046v7.57c0 2.407-.859 4.037-1.973 5.082-1.098 1.03-2.416 1.465-3.32 1.547a.493.493 0 0 1-.046.002H8.323c-2.238 0-3.707-.875-4.609-2.01A5.75 5.75 0 0 1 2.5 16.154V8.69c0-2.338.788-3.887 1.829-4.855C5.355 2.881 6.587 2.528 7.435 2.5Z"/></svg>