<svg viewBox="0 0 24 24" fill="none" xmlns="http://www.w3.org/2000/svg"><path clip-rule="evenodd" d="M2.747 4.756c.416-.772 1.3-1.28 2.411-1.255 1.172.025 1.958.698 2.307 1.591.338.866.265 1.924-.181 2.816-.39.777-1.14 1.255-1.84 1.543a6.463 6.463 0 0 1-1.443.397V19.5h4.674V8.952a.5.5 0 0 1 .5-.5H12.9a.5.5 0 0 1 .5.5v.643a5.647 5.647 0 0 1 4.639-.997c1.898.445 3.461 1.956 3.461 4.405V20a.5.5 0 0 1-.5.5h-3.898a.5.5 0 0 1-.5-.5v-5.483c0-1.203-.276-1.765-.547-1.995-.241-.206-.618-.258-1.171-.037-.558.223-.904.514-1.125.919-.232.423-.359 1.027-.359 1.931V20a.5.5 0 0 1-1 0v-4.665c0-.978.134-1.776.481-2.411.358-.653.91-1.079 1.631-1.367.725-.29 1.55-.343 2.191.203.612.522.899 1.463.899 2.757V19.5H20.5v-6.497c0-1.93-1.187-3.079-2.69-3.431a4.624 4.624 0 0 0-4.528 1.503.5.5 0 0 1-.882-.323v-1.3H9.675V20a.5.5 0 0 1-.5.5H3.501a.5.5 0 0 1-.5-.5V9.402a.5.5 0 0 1 .468-.499 5.39 5.39 0 0 0 1.595-.377c.6-.247 1.092-.6 1.326-1.067.332-.663.368-1.426.143-2.003-.214-.55-.662-.94-1.396-.955-.794-.017-1.297.335-1.51.73-.207.385-.183.888.237 1.33a.5.5 0 0 1-.725.69c-.707-.745-.812-1.715-.392-2.495Z"/></svg>