<svg viewBox="0 0 24 24" fill="none" xmlns="http://www.w3.org/2000/svg"><path fill-rule="evenodd" clip-rule="evenodd" d="M21.349 4.642a.5.5 0 0 1 .139.468c-.552 2.443-1.728 8.86-2.006 14.913a.5.5 0 0 1-.77.398c-2.347-1.507-7.052-4.393-7.703-4.789a.5.5 0 0 1-.129-.742c.071-.088.148-.184.23-.289a20.714 20.714 0 0 1 2.091-2.324.5.5 0 0 1 .691.722 19.186 19.186 0 0 0-1.88 2.074 618.91 618.91 0 0 1 6.516 4.045c.312-5.284 1.239-10.674 1.81-13.42-4.32 1.235-11.79 4.322-16.014 6.158l3.657 1.38c1.645-1.074 5.284-3.326 8.303-4.775a.5.5 0 1 1 .432.902C13.62 10.85 9.827 13.214 8.32 14.21a.5.5 0 0 1-.452.051L2.823 12.36a.5.5 0 0 1-.025-.925c4.09-1.811 13.469-5.749 18.08-6.919a.5.5 0 0 1 .47.127Z"/></svg>