<svg viewBox="0 0 24 24" fill="none" xmlns="http://www.w3.org/2000/svg"><path fill-rule="evenodd" clip-rule="evenodd" d="M11.9 3a.5.5 0 0 1 .5-.5h2.8a.5.5 0 0 1 .498.458c.148 1.732.903 2.737 1.753 3.315.872.593 1.881.76 2.527.732a.5.5 0 0 1 .044.999A5.363 5.363 0 0 1 16.89 7.1c-1.018-.692-1.872-1.835-2.134-3.6H12.9v10.467c0 1.698-.672 2.984-1.652 3.672-.981.69-2.243.748-3.252.017-1.252-.907-1.468-2.331-.966-3.455a2.95 2.95 0 0 1 2.67-1.747v-2.28c-.915.06-2.09.294-3.086.913-1.154.717-2.114 1.976-2.114 4.25 0 1.472.398 2.522.984 3.272.589.755 1.398 1.244 2.279 1.536a7.513 7.513 0 0 0 2.635.348c.827-.035 1.467-.196 1.771-.354 1.239-.645 1.94-1.282 2.353-2.091.422-.826.578-1.898.578-3.494V9.071a.5.5 0 0 1 .72-.45c.626.307 2.378.976 4.22 1.126a.5.5 0 1 1-.08.997c-1.506-.123-2.941-.559-3.86-.915v4.725c0 1.633-.154 2.903-.687 3.948-.542 1.063-1.441 1.825-2.782 2.524-.489.254-1.295.428-2.191.466a8.506 8.506 0 0 1-2.992-.398c-1.02-.339-2.014-.924-2.753-1.87C3.954 18.274 3.5 17 3.5 15.337c0-2.621 1.14-4.201 2.586-5.1 1.41-.876 3.066-1.079 4.114-1.079a.5.5 0 0 1 .5.5v3.33a.5.5 0 0 1-.574.494c-1.066-.16-1.855.395-2.183 1.127-.325.729-.197 1.631.64 2.237.633.459 1.427.441 2.09-.025.666-.468 1.227-1.42 1.227-2.854V3Z"/></svg>