<svg viewBox="0 0 24 24" fill="none" xmlns="http://www.w3.org/2000/svg"><path clip-rule="evenodd" d="M6.57 3.983c4.905-2.583 8.844-1.336 11.041.293 3.143 2.328 5.653 7.422 2.297 12.429-1.78 2.655-4.248 3.8-6.637 4.109-2.28.295-4.494-.167-6.014-.789l-4.09 1.446a.5.5 0 0 1-.654-.582l1.077-4.72c-2.026-5.34-.414-8.847.819-10.01a.5.5 0 0 1 .686.728c-.893.842-2.51 3.946-.518 9.064a.5.5 0 0 1 .021.293l-.908 3.982 3.416-1.208a.5.5 0 0 1 .366.013c1.383.6 3.504 1.072 5.67.791 2.15-.278 4.34-1.294 5.936-3.674 2.966-4.425.8-8.95-2.062-11.069-1.893-1.402-5.343-2.56-9.772-.319a11.387 11.387 0 0 0-.005 4.022c.306 1.687 1.051 3.443 2.586 4.793 3.415 3.005 6.016 2.016 6.957 1.109l-2.012-1.168-1.14 1.017a.5.5 0 0 1-.498.1 9.252 9.252 0 0 1-2.213-1.168c-.787-.567-1.578-1.351-1.9-2.339a.5.5 0 0 1 .075-.454l.768-1.028-.897-2.108c-.27.123-.584.304-.794.526a.5.5 0 1 1-.728-.686c.518-.55 1.325-.862 1.66-.956a.5.5 0 0 1 .595.285l1.197 2.812a.5.5 0 0 1-.06.495l-.775 1.037c.27.6.807 1.146 1.443 1.604.587.423 1.216.74 1.688.932l1.183-1.056a.5.5 0 0 1 .584-.06l2.82 1.637a.5.5 0 0 1 .189.67c-.873 1.607-4.52 3.318-8.803-.45-1.747-1.537-2.575-3.522-2.909-5.366-.333-1.839-.18-3.566.06-4.643a.5.5 0 0 1 .255-.334Z"/></svg>