<svg width="39" height="24" viewBox="0 0 39 24" fill="none" xmlns="http://www.w3.org/2000/svg">
<path d="M35.1333 0H3.93945C3.80953 0 3.67939 0 3.5497 0.000747416C3.44007 0.00151748 3.3307 0.00271788 3.22133 0.00566224C2.9828 0.0120266 2.74223 0.0259104 2.50668 0.0676751C2.26737 0.110165 2.04468 0.17947 1.82743 0.288593C1.61385 0.395745 1.41832 0.535897 1.24887 0.703137C1.07935 0.870377 0.937284 1.06296 0.828693 1.27389C0.718059 1.48822 0.647763 1.70798 0.604992 1.94426C0.562431 2.1767 0.548264 2.41399 0.541835 2.64907C0.538897 2.75697 0.537636 2.86487 0.536922 2.97274C0.536165 3.10096 0.536417 3.22909 0.536417 3.35753V20.6427C0.536417 20.7712 0.536165 20.8991 0.536922 21.0275C0.537636 21.1354 0.538897 21.2433 0.541835 21.3512C0.548264 21.5861 0.562431 21.8234 0.604992 22.0557C0.647763 22.2921 0.718059 22.5118 0.828693 22.7261C0.937284 22.9371 1.07935 23.1299 1.24887 23.2969C1.41832 23.4644 1.61385 23.6045 1.82743 23.7114C2.04468 23.8208 2.26737 23.8902 2.50668 23.9326C2.74223 23.9741 2.9828 23.9882 3.22133 23.9946C3.3307 23.9971 3.44007 23.9985 3.5497 23.999C3.67939 24 3.80953 24 3.93945 24H35.1333C35.263 24 35.3932 24 35.5228 23.999C35.6322 23.9985 35.7416 23.9971 35.8515 23.9946C36.0895 23.9882 36.33 23.9741 36.5661 23.9326C36.8051 23.8902 37.0279 23.8208 37.2451 23.7114C37.4589 23.6045 37.6539 23.4644 37.8237 23.2969C37.9929 23.1299 38.135 22.9371 38.2439 22.7261C38.3548 22.5118 38.425 22.2921 38.4675 22.0557C38.5101 21.8234 38.524 21.5861 38.5304 21.3512C38.5334 21.2433 38.5349 21.1354 38.5354 21.0275C38.5364 20.8991 38.5364 20.7712 38.5364 20.6427V3.35753C38.5364 3.22909 38.5364 3.10096 38.5354 2.97274C38.5349 2.86487 38.5334 2.75697 38.5304 2.64907C38.524 2.41399 38.5101 2.1767 38.4675 1.94426C38.425 1.70798 38.3548 1.48822 38.2439 1.27389C38.135 1.06296 37.9929 0.870377 37.8237 0.703137C37.6539 0.535897 37.4589 0.395745 37.2451 0.288593C37.0279 0.17947 36.8051 0.110165 36.5661 0.0676751C36.33 0.0259104 36.0895 0.0120266 35.8515 0.00566224C35.7416 0.00271788 35.6322 0.00151748 35.5228 0.000747416C35.3932 0 35.263 0 35.1333 0Z" fill="white"/>
<path d="M10.9101 8.0722C11.2355 7.67071 11.4563 7.13163 11.3981 6.58075C10.9218 6.60412 10.3405 6.89075 10.004 7.29256C9.70191 7.63664 9.43449 8.19829 9.5042 8.72608C10.0389 8.77183 10.573 8.46243 10.9101 8.0722Z" fill="black"/>
<path d="M11.392 8.82912C10.6155 8.78349 9.95534 9.26386 9.58454 9.26386C9.21354 9.26386 8.64573 8.85211 8.03159 8.86321C7.23225 8.87479 6.49056 9.32066 6.08493 10.0298C5.25062 11.4484 5.86475 13.5528 6.67608 14.7082C7.07007 15.2798 7.54491 15.9092 8.17058 15.8866C8.76172 15.8637 8.99343 15.509 9.712 15.509C10.43 15.509 10.6388 15.8866 11.2645 15.8751C11.9135 15.8637 12.3192 15.3032 12.7132 14.7311C13.1651 14.0795 13.3502 13.4503 13.3618 13.4157C13.3502 13.4043 12.1105 12.9351 12.099 11.5283C12.0873 10.3503 13.0723 9.78999 13.1186 9.75524C12.5624 8.94362 11.6933 8.85211 11.392 8.82912Z" fill="black"/>
<path d="M18.1528 7.23495C19.8404 7.23495 21.0155 8.3826 21.0155 10.0535C21.0155 11.7303 19.8162 12.8839 18.1104 12.8839H16.2419V15.8154H14.8919V7.23495L18.1528 7.23495ZM16.2419 11.766H17.791C18.9663 11.766 19.6353 11.1417 19.6353 10.0594C19.6353 8.97729 18.9663 8.35885 17.797 8.35885H16.2419V11.766Z" fill="black"/>
<path d="M21.3683 14.0375C21.3683 12.9433 22.2181 12.2714 23.7251 12.1882L25.4608 12.0871V11.6055C25.4608 10.9098 24.9846 10.4935 24.1892 10.4935C23.4356 10.4935 22.9654 10.8502 22.851 11.4093H21.6215C21.6938 10.2794 22.6701 9.44695 24.2373 9.44695C25.7742 9.44695 26.7566 10.2497 26.7566 11.5044V15.8154H25.5089V14.7867H25.479C25.1113 15.4824 24.3096 15.9224 23.4779 15.9224C22.2362 15.9224 21.3683 15.1613 21.3683 14.0375ZM25.4608 13.4726V12.9791L23.8997 13.0742C23.1221 13.1278 22.6822 13.4667 22.6822 14.0018C22.6822 14.5488 23.1403 14.9056 23.8395 14.9056C24.7495 14.9056 25.4608 14.2872 25.4608 13.4726Z" fill="black"/>
<path d="M27.9346 18.1167V17.0761C28.0308 17.0998 28.2478 17.0998 28.3564 17.0998C28.9591 17.0998 29.2846 16.8501 29.4834 16.2079C29.4834 16.196 29.598 15.8274 29.598 15.8214L27.3077 9.55995H28.7179L30.3214 14.65H30.3453L31.9488 9.55995H33.323L30.948 16.1424C30.4058 17.6588 29.7789 18.1464 28.465 18.1464C28.3564 18.1464 28.0308 18.1345 27.9346 18.1167Z" fill="black"/>
</svg>
