<svg width="39" height="25" viewBox="0 0 39 25" fill="none" xmlns="http://www.w3.org/2000/svg">
<g clip-path="url(#clip0_65057_4613)">
<path d="M35.0999 0.5H3.90601C3.77609 0.5 3.64594 0.5 3.51625 0.500747C3.40663 0.501517 3.29726 0.502718 3.18789 0.505662C2.94935 0.512027 2.70878 0.52591 2.47323 0.567675C2.23392 0.610165 2.01123 0.67947 1.79398 0.788593C1.5804 0.895745 1.38487 1.0359 1.21542 1.20314C1.0459 1.37038 0.903836 1.56296 0.795246 1.77389C0.684612 1.98822 0.614315 2.20798 0.571545 2.44426C0.528984 2.6767 0.514816 2.91399 0.508388 3.14907C0.50545 3.25697 0.504189 3.36487 0.503475 3.47274C0.502718 3.60096 0.50297 3.72909 0.50297 3.85753V21.1427C0.50297 21.2712 0.502718 21.3991 0.503475 21.5275C0.504189 21.6354 0.50545 21.7433 0.508388 21.8512C0.514816 22.0861 0.528984 22.3234 0.571545 22.5557C0.614315 22.7921 0.684612 23.0118 0.795246 23.2261C0.903836 23.4371 1.0459 23.6299 1.21542 23.7969C1.38487 23.9644 1.5804 24.1045 1.79398 24.2114C2.01123 24.3208 2.23392 24.3902 2.47323 24.4326C2.70878 24.4741 2.94935 24.4882 3.18789 24.4946C3.29726 24.4971 3.40663 24.4985 3.51625 24.499C3.64594 24.5 3.77609 24.5 3.90601 24.5H35.0999C35.2296 24.5 35.3597 24.5 35.4894 24.499C35.5988 24.4985 35.7081 24.4971 35.818 24.4946C36.056 24.4882 36.2966 24.4741 36.5327 24.4326C36.7717 24.3902 36.9944 24.3208 37.2117 24.2114C37.4255 24.1045 37.6205 23.9644 37.7903 23.7969C37.9595 23.6299 38.1016 23.4371 38.2104 23.2261C38.3213 23.0118 38.3915 22.7921 38.4341 22.5557C38.4767 22.3234 38.4905 22.0861 38.497 21.8512C38.4999 21.7433 38.5014 21.6354 38.5019 21.5275C38.5029 21.3991 38.5029 21.2712 38.5029 21.1427V3.85753C38.5029 3.72909 38.5029 3.60096 38.5019 3.47274C38.5014 3.36487 38.4999 3.25697 38.497 3.14907C38.4905 2.91399 38.4767 2.6767 38.4341 2.44426C38.3915 2.20798 38.3213 1.98822 38.2104 1.77389C38.1016 1.56296 37.9595 1.37038 37.7903 1.20314C37.6205 1.0359 37.4255 0.895745 37.2117 0.788593C36.9944 0.67947 36.7717 0.610165 36.5327 0.567675C36.2966 0.52591 36.056 0.512027 35.818 0.505662C35.7081 0.502718 35.5988 0.501517 35.4894 0.500747C35.3597 0.5 35.2296 0.5 35.0999 0.5Z" fill="white"/>
<path d="M10.8761 8.5725C11.2015 8.17101 11.4222 7.63193 11.364 7.08105C10.8877 7.10442 10.3065 7.39105 9.97 7.79286C9.66786 8.13694 9.40044 8.6986 9.47016 9.22638C10.0048 9.27213 10.539 8.96273 10.8761 8.5725Z" fill="black"/>
<path d="M11.3583 9.32923C10.5818 9.2836 9.92162 9.76398 9.55082 9.76398C9.17981 9.76398 8.612 9.35222 7.99786 9.36332C7.19853 9.3749 6.45683 9.82077 6.0512 10.5299C5.21689 11.9486 5.83103 14.0529 6.64235 15.2083C7.03635 15.7799 7.51118 16.4093 8.13685 16.3867C8.728 16.3638 8.95971 16.0091 9.67827 16.0091C10.3963 16.0091 10.605 16.3867 11.2308 16.3753C11.8797 16.3638 12.2854 15.8034 12.6794 15.2312C13.1314 14.5796 13.3164 13.9504 13.3281 13.9159C13.3164 13.9044 12.0768 13.4352 12.0653 12.0284C12.0536 10.8504 13.0386 10.2901 13.0849 10.2554C12.5287 9.44374 11.6596 9.35222 11.3583 9.32923Z" fill="black"/>
<path d="M18.1192 7.73535C19.8069 7.73535 20.982 8.883 20.982 10.5539C20.982 12.2307 19.7827 13.3843 18.0769 13.3843H16.2084V16.3158H14.8584V7.73535H18.1192V7.73535ZM16.2084 12.2664H17.7574C18.9328 12.2664 19.6018 11.6421 19.6018 10.5598C19.6018 9.47769 18.9328 8.85925 17.7635 8.85925H16.2084V12.2664Z" fill="black"/>
<path d="M21.335 14.5378C21.335 13.4436 22.1848 12.7718 23.6918 12.6885L25.4275 12.5874V12.1058C25.4275 11.4101 24.9513 10.9939 24.1559 10.9939C23.4023 10.9939 22.9321 11.3506 22.8177 11.9096H21.5882C21.6605 10.7797 22.6368 9.94727 24.204 9.94727C25.7409 9.94727 26.7233 10.75 26.7233 12.0047V16.3157H25.4756V15.287H25.4457C25.078 15.9828 24.2763 16.4227 23.4446 16.4227C22.203 16.4227 21.335 15.6616 21.335 14.5378ZM25.4275 13.973V13.4794L23.8664 13.5745C23.0888 13.6281 22.6489 13.967 22.6489 14.5022C22.6489 15.0491 23.107 15.406 23.8062 15.406C24.7162 15.406 25.4275 14.7875 25.4275 13.973Z" fill="black"/>
<path d="M27.9013 18.6173V17.5766C27.9975 17.6004 28.2145 17.6004 28.3231 17.6004C28.9258 17.6004 29.2513 17.3507 29.4501 16.7085C29.4501 16.6966 29.5647 16.328 29.5647 16.322L27.2744 10.0605H28.6846L30.2881 15.1506H30.312L31.9155 10.0605H33.2897L30.9147 16.643C30.3725 18.1594 29.7456 18.647 28.4317 18.647C28.3231 18.647 27.9975 18.6351 27.9013 18.6173Z" fill="black"/>
</g>
<defs>
<clipPath id="clip0_65057_4613">
<rect x="0.50293" y="0.5" width="38" height="24" rx="4" fill="white"/>
</clipPath>
</defs>
</svg>
