<svg width="126" height="19" viewBox="0 0 126 19" fill="none" xmlns="http://www.w3.org/2000/svg">
<g clip-path="url(#clip0_65057_4593)">
<path d="M22.3633 0.5H19.36V15.73H22.3633V0.5Z" fill="white"/>
<path d="M15.91 1.35222H12.9066V16.5819H15.91V1.35222Z" fill="white"/>
<path d="M9.45667 2.30363H6.45332V17.5362H9.45667V2.30363Z" fill="white"/>
<path d="M3.00334 3.26562H0L1.14441e-05 18.5H3.00335L3.00334 3.26562Z" fill="white"/>
<path d="M101.687 8.61402L96.851 3.2374H94.0239V15.6861H96.9756V7.74361L101.391 12.4493H101.936L106.275 7.74361V15.6861H109.227V3.2374H106.4L101.687 8.61402Z" fill="white"/>
<path d="M123.289 3.2374L115.973 11.3286V3.2374H113.021V15.6861H115.726L123.042 7.59491V15.6861H125.993V3.2374H123.289Z" fill="white"/>
<path d="M78.1253 7.79257C78.1253 9.77458 79.2092 11.3359 80.8729 11.9905L77.7532 15.6861H81.366L84.2039 12.3242H87.2748V15.6861H90.2265V3.2374H82.7118C79.91 3.2374 78.1253 5.15413 78.1253 7.79257ZM87.2766 5.97921V9.66033H83.2592C81.9188 9.66033 81.1998 8.91323 81.1998 7.81796C81.1998 6.72269 81.9441 5.97558 83.2592 5.97558L87.2766 5.97921Z" fill="white"/>
<path d="M64.4089 5.72715C64.2283 10.0085 63.3251 12.7721 61.5566 12.7721H61.114V15.7605L61.5855 15.7859C65.1315 15.9835 67.0915 12.8718 67.413 6.07532H72.0772V15.6861H75.0235V3.2374H64.5083L64.4089 5.72715Z" fill="white"/>
<path d="M53.2978 3.06348C49.3056 3.06348 46.4333 5.82704 46.4333 9.46102C46.4333 13.2201 49.5585 15.8858 53.2978 15.8858C57.1924 15.8858 60.2182 13.0714 60.2182 9.46102C60.2182 5.85061 57.1924 3.06348 53.2978 3.06348ZM53.2978 12.8973C51.0415 12.8973 49.5043 11.4285 49.5043 9.46102C49.5043 7.44456 51.0433 6.01563 53.2978 6.01563C55.5522 6.01563 57.1418 7.50984 57.1418 9.46102C57.1418 11.4122 55.5305 12.8973 53.2978 12.8973Z" fill="white"/>
<path d="M43.3029 3.26089H32.8852L32.7859 5.75063C32.6378 9.33747 31.702 12.7484 29.9335 12.7974L29.1152 12.8227V18.4999L32.0922 18.4939V15.6879H42.434V18.4939H45.4363V12.7974H43.3029V3.26089ZM40.3512 12.7974H34.0522C35.118 11.1798 35.6888 8.83879 35.7882 6.10061H40.3512V12.7974Z" fill="white"/>
</g>
<defs>
<clipPath id="clip0_65057_4593">
<rect width="126" height="18" fill="white" transform="translate(0 0.5)"/>
</clipPath>
</defs>
</svg>
