<svg width="126" height="18" viewBox="0 0 126 18" fill="none" xmlns="http://www.w3.org/2000/svg">
<path d="M19.36 0H22.3633V15.23H19.36V0Z" fill="white"/>
<path d="M12.9066 0.852219H15.91V16.0819H12.9066V0.852219Z" fill="white"/>
<path d="M9.45667 1.80363H6.45332V17.0362H9.45667V1.80363Z" fill="white"/>
<path d="M0 2.76562H3.00334L3.00335 18H1.14441e-05L0 2.76562Z" fill="white"/>
<path fill-rule="evenodd" clip-rule="evenodd" d="M53.2975 2.56361C49.3053 2.56361 46.4331 5.32717 46.4331 8.96115C46.4331 12.7203 49.5582 15.3859 53.2975 15.3859C57.1922 15.3859 60.2179 12.5716 60.2179 8.96115C60.2179 5.35074 57.1922 2.56361 53.2975 2.56361ZM53.2975 12.3975C51.0413 12.3975 49.504 10.9286 49.504 8.96115C49.504 6.94469 51.0431 5.51576 53.2975 5.51576C55.5519 5.51576 57.1416 7.00997 57.1416 8.96115C57.1416 10.9123 55.5303 12.3975 53.2975 12.3975Z" fill="white"/>
<path d="M61.5563 12.2722C63.3248 12.2722 64.228 9.50863 64.4087 5.22728L64.508 2.73754H75.0232V15.1863H72.077V5.57545H67.4128C67.0912 12.3719 65.1312 15.4837 61.5852 15.286L61.1138 15.2606V12.2722H61.5563Z" fill="white"/>
<path fill-rule="evenodd" clip-rule="evenodd" d="M78.1251 7.2927C78.1251 9.27471 79.2089 10.836 80.8726 11.4906L77.7529 15.1863H81.3658L84.2037 11.8243H87.2746V15.1863H90.2263V2.73754H82.7116C79.9098 2.73754 78.1251 4.65426 78.1251 7.2927ZM87.2764 5.47934V9.16047H83.2589C81.9185 9.16047 81.1996 8.41336 81.1996 7.31809C81.1996 6.22282 81.9438 5.47571 83.2589 5.47571L87.2764 5.47934Z" fill="white"/>
<path d="M96.8507 2.73754L101.687 8.11415L106.399 2.73754H109.227V15.1863H106.275V7.24374L101.936 11.9494H101.39L96.9754 7.24374V15.1863H94.0237V2.73754H96.8507Z" fill="white"/>
<path d="M115.973 10.8288L123.289 2.73754H125.993V15.1863H123.041V7.09505L115.725 15.1863H113.021V2.73754H115.973V10.8288Z" fill="white"/>
<path fill-rule="evenodd" clip-rule="evenodd" d="M32.885 2.76102H43.3026V12.2975H45.436V17.994H42.4337V15.188H32.092V17.994L29.115 18V12.3229L29.9333 12.2975C31.7018 12.2485 32.6375 8.8376 32.7856 5.25077L32.885 2.76102ZM34.0519 12.2975H40.3509V5.60075H35.7879C35.6886 8.33892 35.1177 10.68 34.0519 12.2975Z" fill="white"/>
</svg>
