<svg width="36" height="15" viewBox="0 0 36 15" fill="none" xmlns="http://www.w3.org/2000/svg">
<path d="M11.4922 6.45534C11.4927 6.05858 11.459 5.66251 11.3913 5.27148H5.8623V7.51386H9.02904C8.96424 7.872 8.82709 8.2134 8.62585 8.51748C8.4246 8.82156 8.16344 9.08203 7.85811 9.28318V10.7387H9.74805C10.8547 9.72551 11.4922 8.22709 11.4922 6.45534Z" fill="#4285F4"/>
<path d="M5.8623 12.1454C7.44444 12.1454 8.77661 11.6295 9.74805 10.74L7.8581 9.28445C7.33207 9.63864 6.65459 9.8408 5.8623 9.8408C4.33308 9.8408 3.03511 8.81705 2.57097 7.4375H0.624023V8.93754C1.112 9.90183 1.86025 10.7125 2.78524 11.2789C3.71024 11.8454 4.77557 12.1454 5.8623 12.1454Z" fill="#34A853"/>
<path d="M2.57123 7.43668C2.32586 6.71378 2.32586 5.93094 2.57123 5.20805V3.70801H0.624287C0.213788 4.5192 0 5.41449 0 6.32236C0 7.23023 0.213788 8.12552 0.624287 8.93672L2.57123 7.43668Z" fill="#FBBC04"/>
<path d="M5.8623 2.80502C6.69839 2.79146 7.50628 3.10517 8.11134 3.67836L9.78469 2.01659C8.72361 1.02687 7.31792 0.483498 5.8623 0.500382C4.77557 0.500431 3.71024 0.800434 2.78524 1.3669C1.86025 1.93336 1.112 2.74399 0.624023 3.70828L2.57097 5.20832C3.03511 3.82877 4.33308 2.80502 5.8623 2.80502Z" fill="#EA4335"/>
<path d="M16.7905 7.34016V11.444H15.4795V1.30927H18.9565C19.3715 1.30067 19.7841 1.37376 20.1706 1.52435C20.557 1.67494 20.9096 1.90004 21.208 2.18666C21.5093 2.45587 21.7492 2.78603 21.9114 3.15495C22.0737 3.52388 22.1545 3.92301 22.1485 4.32552C22.1571 4.73019 22.0775 5.13193 21.9152 5.5032C21.7528 5.87448 21.5116 6.2065 21.208 6.47652C20.6 7.05228 19.8495 7.33989 18.9565 7.33935H16.7905V7.34016ZM16.7905 2.55702V6.09484H18.989C19.2301 6.10194 19.4699 6.059 19.6933 5.96877C19.9167 5.87854 20.1186 5.743 20.2862 5.57084C20.4529 5.40987 20.5854 5.21733 20.6759 5.00461C20.7664 4.7919 20.8131 4.56332 20.8131 4.3324C20.8131 4.10148 20.7664 3.8729 20.6759 3.66018C20.5854 3.44746 20.4529 3.25493 20.2862 3.09396C20.1207 2.91816 19.9195 2.77931 19.6958 2.6866C19.4722 2.59389 19.2313 2.54945 18.989 2.55621H16.7905V2.55702Z" fill="white"/>
<path d="M25.169 4.2832C26.138 4.2832 26.9029 4.54035 27.4636 5.05465C28.0244 5.56895 28.3045 6.27409 28.304 7.17007V11.4438H27.05V10.4815H26.993C26.4501 11.2739 25.7281 11.6702 24.827 11.6702C24.0578 11.6702 23.4142 11.4438 22.8963 10.9909C22.6478 10.7831 22.4491 10.5228 22.3147 10.229C22.1803 9.93523 22.1136 9.61538 22.1195 9.29277C22.1195 8.57523 22.3926 8.00459 22.9387 7.58086C23.4848 7.15713 24.2138 6.94473 25.1258 6.94365C25.9043 6.94365 26.5454 7.08516 27.0492 7.36819V7.07061C27.0506 6.85067 27.0028 6.63316 26.9092 6.43385C26.8155 6.23454 26.6784 6.05843 26.5077 5.91829C26.161 5.60767 25.7092 5.43818 25.2423 5.44361C24.51 5.44361 23.9305 5.75036 23.5038 6.36385L22.3491 5.64173C22.9843 4.73605 23.9242 4.2832 25.169 4.2832ZM23.4728 9.32107C23.472 9.48676 23.511 9.65026 23.5866 9.79796C23.6622 9.94565 23.7723 10.0733 23.9077 10.1701C24.1976 10.3966 24.5575 10.5166 24.9263 10.5098C25.4795 10.5089 26.0098 10.2902 26.401 9.90168C26.8353 9.49574 27.0524 9.01944 27.0524 8.4728C26.6436 8.14934 26.0736 7.98761 25.3424 7.98761C24.8099 7.98761 24.3658 8.11511 24.0103 8.3701C23.6512 8.62887 23.4728 8.94343 23.4728 9.32107Z" fill="white"/>
<path d="M35.5025 4.50879L31.1249 14.4996H29.7716L31.3961 11.0038L28.5176 4.50879H29.9426L32.0231 9.49005H32.0516L34.0751 4.50879H35.5025Z" fill="white"/>
</svg>
