<svg width="36" height="14" viewBox="0 0 36 14" fill="none" xmlns="http://www.w3.org/2000/svg">
<path d="M11.5259 5.95526C11.5264 5.5585 11.4926 5.16242 11.4249 4.7714H5.89597V7.01378H9.06271C8.99791 7.37192 8.86075 7.71332 8.65951 8.0174C8.45827 8.32148 8.19711 8.58195 7.89177 8.78309V10.2387H9.78172C10.8883 9.22542 11.5259 7.727 11.5259 5.95526Z" fill="#4285F4"/>
<path d="M5.89633 11.6451C7.47848 11.6451 8.81064 11.1292 9.78208 10.2397L7.89214 8.78412C7.36611 9.13831 6.68863 9.34047 5.89633 9.34047C4.36711 9.34047 3.06915 8.31673 2.60501 6.93718H0.658059V8.43721C1.14603 9.40151 1.89428 10.2121 2.81928 10.7786C3.74427 11.3451 4.8096 11.6451 5.89633 11.6451Z" fill="#34A853"/>
<path d="M2.60501 6.93718C2.35963 6.21428 2.35955 5.43113 2.60493 4.70824V3.2082H0.657978C0.247479 4.0194 0.0336914 4.91469 0.0336914 5.82255C0.0336914 6.73042 0.24756 7.62602 0.658059 8.43721L2.60501 6.93718Z" fill="#FBBC04"/>
<path d="M5.89633 2.30508C6.73243 2.29151 7.54032 2.60523 8.14538 3.17841L9.81873 1.51665C8.75765 0.526925 7.35196 -0.0164484 5.89633 0.0004354C4.8096 0.000484586 3.74427 0.300487 2.81928 0.86695C1.89428 1.43341 1.14595 2.24391 0.657978 3.2082L2.60493 4.70824C3.06907 3.32869 4.36711 2.30508 5.89633 2.30508Z" fill="#EA4335"/>
<path d="M16.8243 6.83985V10.9437H15.5133V0.808966H18.9903C19.4053 0.800357 19.8179 0.873456 20.2044 1.02404C20.5908 1.17463 20.9434 1.39973 21.2418 1.68635C21.5431 1.95556 21.783 2.28572 21.9452 2.65465C22.1074 3.02357 22.1883 3.4227 22.1823 3.82522C22.1909 4.22989 22.1113 4.63162 21.949 5.00289C21.7866 5.37417 21.5454 5.70619 21.2418 5.97621C20.6338 6.55197 19.8833 6.83958 18.9903 6.83904L16.8243 6.83985ZM16.8243 2.05671V5.59453H19.0228C19.2639 5.60163 19.5037 5.55869 19.7271 5.46846C19.9505 5.37823 20.1524 5.2427 20.32 5.07053C20.4867 4.90956 20.6192 4.71702 20.7097 4.50431C20.8002 4.29159 20.8469 4.06301 20.8469 3.83209C20.8469 3.60117 20.8002 3.37259 20.7097 3.15987C20.6192 2.94716 20.4867 2.75462 20.32 2.59365C20.1545 2.41785 19.9533 2.279 19.7296 2.18629C19.506 2.09358 19.2651 2.04914 19.0228 2.0559L16.8243 2.05671Z" fill="white"/>
<path d="M25.2025 3.78329C26.1714 3.78329 26.9363 4.04044 27.4971 4.55474C28.0579 5.06904 28.338 5.77418 28.3374 6.67016V10.9439H27.0834V9.98156H27.0264C26.4836 10.774 25.7616 11.1703 24.8605 11.1703C24.0912 11.1703 23.4477 10.9439 22.9298 10.491C22.6813 10.2832 22.4826 10.0229 22.3482 9.7291C22.2138 9.43532 22.1471 9.11547 22.153 8.79285C22.153 8.07531 22.426 7.50468 22.9721 7.08095C23.5182 6.65722 24.2473 6.44481 25.1593 6.44374C25.9377 6.44374 26.5789 6.58525 27.0826 6.86828V6.57069C27.0841 6.35076 27.0363 6.13325 26.9426 5.93394C26.849 5.73463 26.7118 5.55852 26.5411 5.41837C26.1944 5.10775 25.7426 4.93827 25.2757 4.9437C24.5434 4.9437 23.9639 5.25044 23.5372 5.86394L22.3826 5.14182C23.0177 4.23613 23.9577 3.78329 25.2025 3.78329ZM23.5063 8.82115C23.5054 8.98685 23.5444 9.15035 23.6201 9.29804C23.6957 9.44574 23.8058 9.57334 23.9411 9.67023C24.2311 9.89673 24.591 10.0167 24.9598 10.0099C25.513 10.0089 26.0433 9.79027 26.4345 9.40176C26.8687 8.99582 27.0859 8.51953 27.0859 7.97289C26.6771 7.64943 26.1071 7.4877 25.3759 7.4877C24.8434 7.4877 24.3993 7.61519 24.0437 7.87019C23.6846 8.12895 23.5063 8.44352 23.5063 8.82115Z" fill="white"/>
<path d="M35.5364 4.00917L31.1589 14H29.8055L31.43 10.5042L28.5515 4.00917H29.9765L32.057 8.99042H32.0855L34.109 4.00917H35.5364Z" fill="white"/>
</svg>
