<svg width="30" height="25" viewBox="0 0 30 25" fill="none" xmlns="http://www.w3.org/2000/svg">
<path d="M19.0564 5.01367H10.9443V19.8238H19.0564V5.01367Z" fill="#FF5F00"/>
<path d="M11.4592 12.4188C11.4579 10.9925 11.776 9.58455 12.3895 8.30161C13.003 7.01867 13.8957 5.89434 15.0001 5.01374C13.6325 3.92159 11.99 3.2424 10.2603 3.05379C8.53068 2.86519 6.7837 3.17478 5.21907 3.94719C3.65443 4.7196 2.33526 5.92365 1.41235 7.42173C0.48943 8.91981 0 10.6515 0 12.4188C0 14.1861 0.48943 15.9178 1.41235 17.4158C2.33526 18.9139 3.65443 20.118 5.21907 20.8904C6.7837 21.6628 8.53068 21.9724 10.2603 21.7838C11.99 21.5952 13.6325 20.916 15.0001 19.8238C13.8957 18.9432 13.003 17.8189 12.3895 16.536C11.776 15.253 11.4579 13.8451 11.4592 12.4188Z" fill="#EB001B"/>
<path d="M29.9996 12.4188C29.9997 14.1861 29.5103 15.9177 28.5875 17.4158C27.6646 18.9139 26.3455 20.1179 24.7809 20.8904C23.2163 21.6628 21.4693 21.9724 19.7397 21.7838C18.0101 21.5952 16.3676 20.916 15 19.8238C16.1034 18.9423 16.9955 17.8178 17.6088 16.5351C18.2222 15.2524 18.5409 13.8449 18.5409 12.4188C18.5409 10.9927 18.2222 9.58521 17.6088 8.30248C16.9955 7.01974 16.1034 5.89523 15 5.01374C16.3676 3.92158 18.0101 3.24239 19.7397 3.05379C21.4693 2.86519 23.2163 3.17479 24.7809 3.94721C26.3455 4.71962 27.6646 5.92368 28.5875 7.42176C29.5103 8.91984 29.9997 10.6515 29.9996 12.4188Z" fill="#F79E1B"/>
<path d="M29.1158 18.2552V17.952H29.2362V17.8903H28.9297V17.952H29.0501V18.2552H29.1158ZM29.7108 18.2552V17.8896H29.6169L29.5088 18.1411L29.4008 17.8896H29.3068V18.2552H29.3731V17.9795L29.4744 18.2172H29.5432L29.6446 17.9789V18.2552H29.7108Z" fill="#F79E1B"/>
</svg>
