<svg width="31" height="20" viewBox="0 0 31 20" fill="none" xmlns="http://www.w3.org/2000/svg">
<path d="M19.1279 2.59448H11.0158V17.4046H19.1279V2.59448Z" fill="#FF5F00"/>
<path d="M11.5308 10C11.5295 8.57368 11.8477 7.16576 12.4612 5.88282C13.0746 4.59989 13.9674 3.47555 15.0718 2.59495C13.7041 1.5028 12.0616 0.823611 10.332 0.635007C8.60233 0.446403 6.85536 0.755999 5.29072 1.52841C3.72609 2.30081 2.40692 3.50486 1.484 5.00294C0.561085 6.50102 0.0716553 8.23268 0.0716553 10C0.0716553 11.7673 0.561085 13.499 1.484 14.9971C2.40692 16.4951 3.72609 17.6992 5.29072 18.4716C6.85536 19.244 8.60233 19.5536 10.332 19.365C12.0616 19.1764 13.7041 18.4972 15.0718 17.405C13.9674 16.5244 13.0746 15.4001 12.4612 14.1172C11.8477 12.8342 11.5295 11.4263 11.5308 10Z" fill="#EB001B"/>
<path d="M30.0715 10C30.0716 11.7673 29.5822 13.4989 28.6594 14.997C27.7365 16.4951 26.4174 17.6992 24.8528 18.4716C23.2882 19.244 21.5412 19.5536 19.8116 19.365C18.082 19.1764 16.4394 18.4972 15.0718 17.405C16.1752 16.5236 17.0674 15.399 17.6807 14.1163C18.2941 12.8336 18.6128 11.4261 18.6128 10C18.6128 8.57391 18.2941 7.16644 17.6807 5.8837C17.0674 4.60097 16.1752 3.47644 15.0718 2.59495C16.4394 1.5028 18.082 0.823616 19.8116 0.635015C21.5412 0.446413 23.2882 0.756014 24.8528 1.52843C26.4174 2.30084 27.7365 3.5049 28.6594 5.00298C29.5822 6.50106 30.0716 8.23271 30.0715 10Z" fill="#F79E1B"/>
<path d="M29.187 15.8362V15.5329H29.3073V15.4712H29.0009V15.5329H29.1213V15.8362H29.187ZM29.782 15.8362V15.4706H29.6881L29.58 15.722L29.4719 15.4706H29.3779V15.8362H29.4443V15.5604L29.5456 15.7981H29.6144L29.7157 15.5598V15.8362H29.782Z" fill="#F79E1B"/>
</svg>
