<svg width="45" height="12" viewBox="0 0 45 12" fill="none" xmlns="http://www.w3.org/2000/svg">
<path d="M0.0715332 0.00195281H4.19586C4.5708 0.00195281 5.69562 -0.123027 6.19554 1.62669C6.57048 2.75151 7.07039 4.50122 7.82027 7.12579H8.07023C8.82011 4.37624 9.44501 2.50155 9.69497 1.62669C10.1949 -0.123027 11.4447 0.00195281 11.9446 0.00195281H15.819V12H11.8196V4.87616H11.5697L9.44501 12H6.4455L4.32084 4.87616H3.9459V12H0.0715332M17.4437 0.00195281H21.4431V7.12579H21.818L24.4426 1.25175C24.9425 0.126932 26.0673 0.00195281 26.0673 0.00195281H29.8167V12H25.8173V4.87616H25.5674L22.9428 10.7502C22.4429 11.875 21.1931 12 21.1931 12H17.4437M35.1908 8.37559V12H31.4414V5.75102H43.6894C43.1895 7.25077 41.4398 8.37559 39.4401 8.37559" fill="#4DB45E"/>
<path d="M43.9394 5.00114C44.4393 2.75151 42.9396 0.00195281 39.6901 0.00195281H31.1915C31.4414 2.62653 33.6911 5.00114 36.0657 5.00114" fill="url(#paint0_linear_1_546)"/>
<defs>
<linearGradient id="paint0_linear_1_546" x1="42.4396" y1="-1.62278" x2="32.4413" y2="-1.62278" gradientUnits="userSpaceOnUse">
<stop stop-color="#088DCB"/>
<stop offset="1" stop-color="#00B4E6"/>
</linearGradient>
</defs>
</svg>
