<svg width="38" height="12" viewBox="0 0 38 12" fill="none" xmlns="http://www.w3.org/2000/svg">
<path fill-rule="evenodd" clip-rule="evenodd" d="M26.9488 0.494551C26.3564 0.259511 25.4167 -1.90735e-06 24.2548 -1.90735e-06C21.2886 -1.90735e-06 19.1999 1.58171 19.1871 3.84309C19.1624 5.51153 20.6826 6.43822 21.8195 6.99453C22.9815 7.56299 23.3766 7.93403 23.3766 8.44073C23.3647 9.21894 22.4375 9.57766 21.5728 9.57766C20.3736 9.57766 19.7311 9.39272 18.7546 8.95976L18.3591 8.77416L17.9388 11.3818C18.6432 11.7027 19.9411 11.9875 21.2886 12C24.4402 12 26.492 10.4428 26.5163 8.03291C26.5283 6.71054 25.7256 5.69729 23.9951 4.86931C22.9446 4.3378 22.3012 3.97941 22.3012 3.43559C22.3135 2.9412 22.8454 2.43482 24.0313 2.43482C25.0077 2.41002 25.7252 2.64473 26.2687 2.8796L26.5403 3.00296L26.9488 0.494551ZM16.0604 11.8269H13.0568L14.9355 0.210539H17.9389L16.0604 11.8269ZM32.1401 4.46146C32.1401 4.46146 31.1883 7.04427 30.9409 7.71161H33.4375C33.314 7.13083 32.7452 4.35026 32.7452 4.35026L32.5353 3.34933C32.4469 3.60707 32.319 3.96143 32.2328 4.20044C32.1744 4.36241 32.135 4.47148 32.1401 4.46146ZM32.3252 0.210539H34.6485L37.0717 11.8267H34.2906C34.2906 11.8267 34.0184 10.492 33.9322 10.0842H30.0758C29.9643 10.393 29.4454 11.8267 29.4454 11.8267H26.2938L30.7553 1.17435C31.0644 0.420449 31.6087 0.210539 32.3252 0.210539ZM10.5481 0.210539L7.60658 8.13176L7.28514 6.52524C7.28505 6.52491 7.28495 6.52458 7.28485 6.52425L6.23461 1.187C6.06166 0.445086 5.53015 0.235012 4.87512 0.210539H0.0426027L-0.00683594 0.44525C1.1718 0.746649 2.22598 1.18096 3.14966 1.72098L5.82678 11.8145H9.00302L13.7242 0.210539H10.5481Z" fill="white"/>
</svg>
