<svg width="100%" height="100%" viewBox="-1 -1 31 31" xmlns="http://www.w3.org/2000/svg" xmlns:xlink="http://www.w3.org/1999/xlink" shape-rendering="crispEdges" id="qr code"><rect id="qr background" fill-opacity="1" fill="rgb(255, 255, 255)" x="-1" y="-1" width="31" height="31"></rect><path fill-opacity="1" fill="rgb(0, 0, 0)" id="qr dark pixels" fill-rule="evenodd" d="M 9 0 L 11 0 L 11 1 L 9 1 z M 12 0 L 16 0 L 16 1 L 17 1 L 17 2 L 16 2 L 16 3 L 17 3 L 17 4 L 18 4 L 18 3 L 17 3 L 17 2 L 18 2 L 18 1 L 17 1 L 17 0 L 21 0 L 21 1 L 19 1 L 19 2 L 20 2 L 20 4 L 19 4 L 19 5 L 17 5 L 17 7 L 18 7 L 18 6 L 19 6 L 19 8 L 17 8 L 17 10 L 16 10 L 16 8 L 15 8 L 15 7 L 16 7 L 16 6 L 15 6 L 15 5 L 14 5 L 14 6 L 13 6 L 13 4 L 14 4 L 14 2 L 15 2 L 15 1 L 13 1 L 13 2 L 12 2 L 12 3 L 13 3 L 13 4 L 12 4 L 12 5 L 11 5 L 11 4 L 9 4 L 9 3 L 8 3 L 8 1 L 9 1 L 9 2 L 11 2 L 11 1 L 12 1 z M 8 4 L 9 4 L 9 5 L 10 5 L 10 6 L 9 6 L 9 7 L 10 7 L 10 8 L 8 8 z M 19 5 L 20 5 L 20 6 L 19 6 z M 10 6 L 11 6 L 11 7 L 10 7 z M 12 6 L 13 6 L 13 8 L 15 8 L 15 11 L 14 11 L 14 10 L 12 10 z M 14 6 L 15 6 L 15 7 L 14 7 z M 20 6 L 21 6 L 21 11 L 22 11 L 22 12 L 24 12 L 24 13 L 22 13 L 22 14 L 29 14 L 29 15 L 28 15 L 28 17 L 27 17 L 27 15 L 26 15 L 26 16 L 24 16 L 24 15 L 21 15 L 21 14 L 19 14 L 19 13 L 16 13 L 16 12 L 15 12 L 15 11 L 17 11 L 17 12 L 18 12 L 18 11 L 19 11 L 19 10 L 20 10 z M 0 8 L 2 8 L 2 9 L 3 9 L 3 11 L 2 11 L 2 13 L 1 13 L 1 9 L 0 9 z M 3 8 L 4 8 L 4 9 L 3 9 z M 6 8 L 8 8 L 8 9 L 9 9 L 9 10 L 7 10 L 7 9 L 6 9 z M 10 8 L 11 8 L 11 11 L 9 11 L 9 10 L 10 10 z M 22 8 L 25 8 L 25 9 L 23 9 L 23 10 L 25 10 L 25 9 L 26 9 L 26 10 L 28 10 L 28 12 L 29 12 L 29 13 L 27 13 L 27 12 L 26 12 L 26 11 L 25 11 L 25 12 L 24 12 L 24 11 L 22 11 z M 26 8 L 28 8 L 28 9 L 26 9 z M 5 9 L 6 9 L 6 10 L 5 10 z M 28 9 L 29 9 L 29 10 L 28 10 z M 4 10 L 5 10 L 5 12 L 7 12 L 7 13 L 6 13 L 6 14 L 4 14 L 4 12 L 3 12 L 3 11 L 4 11 z M 6 10 L 7 10 L 7 11 L 6 11 z M 17 10 L 18 10 L 18 11 L 17 11 z M 12 11 L 14 11 L 14 12 L 13 12 L 13 14 L 12 14 z M 8 12 L 9 12 L 9 13 L 11 13 L 11 14 L 10 14 L 10 17 L 8 17 L 8 15 L 9 15 L 9 14 L 8 14 L 8 15 L 6 15 L 6 14 L 7 14 L 7 13 L 8 13 z M 25 12 L 26 12 L 26 13 L 25 13 z M 15 13 L 16 13 L 16 14 L 15 14 z M 1 14 L 2 14 L 2 16 L 5 16 L 5 15 L 6 15 L 6 16 L 7 16 L 7 17 L 4 17 L 4 18 L 3 18 L 3 17 L 2 17 L 2 18 L 1 18 L 1 17 L 0 17 L 0 15 L 1 15 z M 3 14 L 4 14 L 4 15 L 3 15 z M 11 14 L 12 14 L 12 15 L 13 15 L 13 14 L 15 14 L 15 16 L 13 16 L 13 17 L 15 17 L 15 23 L 16 23 L 16 24 L 18 24 L 18 26 L 17 26 L 17 25 L 15 25 L 15 24 L 14 24 L 14 25 L 13 25 L 13 26 L 12 26 L 12 25 L 11 25 L 11 26 L 10 26 L 10 23 L 12 23 L 12 22 L 13 22 L 13 23 L 14 23 L 14 22 L 13 22 L 13 21 L 12 21 L 12 19 L 13 19 L 13 20 L 14 20 L 14 18 L 11 18 z M 16 15 L 21 15 L 21 16 L 20 16 L 20 17 L 19 17 L 19 16 L 18 16 L 18 17 L 17 17 L 17 16 L 16 16 z M 15 16 L 16 16 L 16 17 L 15 17 z M 21 16 L 22 16 L 22 17 L 21 17 z M 18 17 L 19 17 L 19 19 L 18 19 z M 22 17 L 24 17 L 24 19 L 23 19 L 23 18 L 22 18 z M 25 17 L 26 17 L 26 18 L 25 18 z M 28 17 L 29 17 L 29 20 L 27 20 L 27 18 L 28 18 z M 0 18 L 1 18 L 1 19 L 0 19 z M 2 18 L 3 18 L 3 20 L 4 20 L 4 21 L 2 21 z M 6 18 L 7 18 L 7 19 L 6 19 z M 8 18 L 9 18 L 9 19 L 8 19 z M 10 18 L 11 18 L 11 19 L 10 19 z M 7 19 L 8 19 L 8 21 L 5 21 L 5 20 L 7 20 z M 9 19 L 10 19 L 10 20 L 9 20 z M 16 19 L 18 19 L 18 20 L 17 20 L 17 21 L 19 21 L 19 20 L 22 20 L 22 19 L 23 19 L 23 20 L 24 20 L 24 19 L 25 19 L 25 23 L 27 23 L 27 22 L 26 22 L 26 20 L 27 20 L 27 21 L 29 21 L 29 22 L 28 22 L 28 23 L 29 23 L 29 25 L 28 25 L 28 24 L 25 24 L 25 25 L 27 25 L 27 27 L 24 27 L 24 26 L 20 26 L 20 27 L 21 27 L 21 29 L 20 29 L 20 28 L 19 28 L 19 27 L 18 27 L 18 26 L 19 26 L 19 25 L 20 25 L 20 22 L 17 22 L 17 23 L 16 23 zM 21 21 L 24 21 L 24 24 L 21 24 z M 0 20 L 1 20 L 1 21 L 0 21 z M 10 20 L 11 20 L 11 21 L 10 21 z M 8 21 L 9 21 L 9 23 L 8 23 z M 22 22 L 23 22 L 23 23 L 22 23 z M 18 23 L 19 23 L 19 24 L 18 24 z M 8 25 L 9 25 L 9 26 L 8 26 z M 9 26 L 10 26 L 10 27 L 11 27 L 11 26 L 12 26 L 12 27 L 14 27 L 14 28 L 13 28 L 13 29 L 12 29 L 12 28 L 10 28 L 10 29 L 8 29 L 8 27 L 9 27 z M 14 26 L 15 26 L 15 27 L 14 27 z M 16 26 L 17 26 L 17 27 L 18 27 L 18 29 L 17 29 L 17 28 L 16 28 L 16 29 L 15 29 L 15 27 L 16 27 z M 28 26 L 29 26 L 29 27 L 28 27 z M 22 27 L 24 27 L 24 28 L 23 28 L 23 29 L 22 29 z M 27 27 L 28 27 L 28 29 L 27 29 z M 25 28 L 26 28 L 26 29 L 25 29 z"></path><path id="qr squares" d="M0,0h7h0v0v7v0h0h-7h0v0v-7v0h0zM1,1h5h0v0v5v0h0h-5h0v0v-5v0h0zM2,2h3h0v0v3v0h0h-3h0v0v-3v0h0z M22,0h7h0v0v7v0h0h-7h0v0v-7v0h0zM23,1h5h0v0v5v0h0h-5h0v0v-5v0h0zM24,2h3h0v0v3v0h0h-3h0v0v-3v0h0z M0,22h7h0v0v7v0h0h-7h0v0v-7v0h0zM1,23h5h0v0v5v0h0h-5h0v0v-5v0h0zM2,24h3h0v0v3v0h0h-3h0v0v-3v0h0z" fill-rule="evenodd" fill-opacity="1" fill="rgb(0, 0, 0)"></path></svg>